<svg width="930" height="236" viewBox="0 0 930 236" fill="none" xmlns="http://www.w3.org/2000/svg">
<circle cx="94.5" cy="69.5" r="63.5" fill="white"/>
<g clip-path="url(#clip0_71_140)">
<path d="M84.8574 55.6032C85.1696 56.19 85.8988 56.4107 86.4861 56.1C87.074 55.7859 87.295 55.0566 86.9825 54.4699C86.4996 53.5689 85.7431 52.868 84.8467 52.4481C83.9502 52.0281 82.9024 51.8934 81.8663 52.1264C80.8333 52.3587 79.952 52.9224 79.3215 53.6778C78.6911 54.4331 78.3049 55.3798 78.2477 56.3926C78.2088 57.0568 78.7182 57.6249 79.3805 57.6628C80.0442 57.7 80.6143 57.192 80.6518 56.5282C80.6785 56.0458 80.8651 55.5865 81.1696 55.2218C81.4754 54.8567 81.8908 54.5913 82.3947 54.4762C82.8994 54.3644 83.3937 54.4286 83.8272 54.6305C84.2622 54.8322 84.6273 55.1734 84.8574 55.6032Z" fill="#750077"/>
<path d="M102.077 48.5733C101.179 48.1537 100.134 48.0183 99.0951 48.252C98.0652 48.4837 97.1824 49.0477 96.5521 49.8031C95.9217 50.5583 95.5357 51.505 95.4768 52.5182C95.4389 53.1803 95.9457 53.7509 96.6093 53.7884C97.275 53.827 97.842 53.3197 97.8806 52.6538C97.9091 52.1723 98.0943 51.7139 98.4 51.3471C98.706 50.9819 99.1212 50.7166 99.6236 50.6018C100.13 50.4897 100.623 50.5543 101.058 50.7558C101.491 50.9578 101.857 51.2989 102.086 51.7289C102.4 52.3153 103.129 52.536 103.716 52.2253C104.303 51.9116 104.525 51.182 104.211 50.5956C103.73 49.6942 102.973 48.9933 102.077 48.5733Z" fill="#750077"/>
<path d="M99.3603 60.9693C98.3981 63.2211 96.3998 64.9394 93.9272 65.4939C91.4614 66.05 88.9148 65.3521 87.0803 63.731C86.582 63.2908 85.8195 63.3368 85.3811 63.8362C84.9389 64.3334 84.9863 65.0956 85.4843 65.5343C87.8899 67.6599 91.2168 68.5702 94.4556 67.8434C97.6972 67.1144 100.314 64.8659 101.575 61.9157C101.836 61.3044 101.553 60.597 100.941 60.3355C100.329 60.0736 99.6221 60.3582 99.3603 60.9693Z" fill="#750077"/>
<path d="M124.235 44.8525C117.505 20.5284 86.5318 14.411 82.6358 15.2872C78.7396 16.1634 53.3693 34.9521 57.7002 59.8156C61.5887 82.1331 77.54 131.231 107.21 124.558C136.882 117.885 130.274 66.6863 124.235 44.8525ZM83.7515 33.7455C84.6042 33.4345 85.4855 33.1719 86.396 32.9672C87.6298 32.6897 88.8608 32.5288 90.081 32.4701C90.2334 32.5824 90.395 32.7136 90.5634 32.8752C91.2744 33.5593 92.0936 34.7033 92.5462 36.7013C92.8861 38.2125 93.0051 40.2243 92.6563 42.8693C89.3115 41.2274 87.2258 39.4933 85.9247 37.9682C84.5079 36.3079 84.0008 34.8906 83.8082 34.0483C83.7833 33.9364 83.7655 33.8357 83.7515 33.7455ZM81.8086 34.5574C82.0728 35.6962 82.7389 37.419 84.3556 39.3096C85.0775 40.1569 85.9897 41.0338 87.134 41.9117C86.151 41.7511 85.1721 41.6155 84.244 41.4475C82.6451 41.1613 81.209 40.7615 80.135 40.0384C79.5967 39.6779 79.1382 39.2433 78.7527 38.6746C78.4359 38.2033 78.1715 37.6298 77.9699 36.9265C79.1508 36.0134 80.4336 35.2161 81.8086 34.5574ZM118.924 93.284C118.601 93.864 117.867 94.0725 117.287 93.7489L90.6329 78.886C92.08 78.9117 93.5461 78.8088 95.02 78.5742L101.261 82.0544L105.622 74.2351C106.627 73.5163 107.573 72.7253 108.453 71.8724C108.956 72.221 109.124 72.8982 108.822 73.443L103.366 83.2282L118.46 91.6462C119.04 91.97 119.248 92.7026 118.924 93.284ZM118.245 53.0252C117.691 53.8971 116.821 54.5483 115.734 54.7945C115.284 54.8955 114.836 54.9126 114.386 54.8608L112.672 54.6583L112.477 56.3737C111.975 60.7925 110.106 64.9178 107.215 68.1908C104.322 71.4661 100.423 73.8872 95.8314 74.9214C91.259 75.9481 86.7167 75.4398 82.7137 73.7365C78.7124 72.0326 75.263 69.1323 72.9088 65.3865L72.0565 64.0306L70.6425 64.7818C70.322 64.9539 69.9887 65.082 69.6391 65.1606C68.5522 65.4032 67.486 65.1874 66.6118 64.637C65.7401 64.0828 65.0868 63.212 64.8424 62.1252C64.5984 61.0402 64.8155 59.9719 65.3664 59.0994C65.9208 58.2276 66.7916 57.5744 67.8778 57.3285C67.9452 57.3134 68.0493 57.2965 68.1927 57.2754L69.7776 57.0477L69.6633 55.4519C69.2898 50.2399 70.8447 45.2109 73.8089 41.1853C74.5489 40.1799 75.377 39.2372 76.2836 38.3714C76.5024 38.9213 76.7617 39.4233 77.0683 39.8696C77.5524 40.5755 78.138 41.1523 78.7808 41.6131C79.9104 42.4187 81.1967 42.875 82.5046 43.1927C84.4672 43.6643 86.5137 43.8353 88.2854 44.224C89.1723 44.4158 89.9853 44.6581 90.6816 44.9909C91.3814 45.3248 91.9617 45.7416 92.4318 46.3009C92.688 46.6025 93.0895 46.7328 93.4716 46.6354C93.8559 46.5394 94.1484 46.2368 94.2307 45.8513C95.1232 41.6863 95.0828 38.5779 94.5604 36.2478C94.2043 34.6582 93.6144 33.4382 92.9666 32.5195C95.9211 32.7759 98.7557 33.6378 101.31 35.0148C105.716 37.3926 109.272 41.2834 111.161 46.166L111.782 47.7765L113.391 47.1474C113.606 47.0637 113.796 47.0016 113.972 46.962C115.061 46.7187 116.126 46.9364 117 47.4871C117.872 48.0397 118.523 48.9126 118.771 49.9969C119.012 51.0848 118.796 52.1511 118.245 53.0252Z" fill="#750077"/>
</g>
<path d="M35.4935 170.56L39.5255 169.6C42.0002 169.045 43.8775 168.299 45.1575 167.36C46.4375 166.379 47.0775 165.056 47.0775 163.392C47.0775 161.771 46.5015 160.512 45.3495 159.616C44.1975 158.72 42.5975 158.272 40.5495 158.272C38.6295 158.272 37.0722 158.741 35.8775 159.68C34.7255 160.619 34.1495 161.856 34.1495 163.392C34.1495 164.672 34.4908 165.717 35.1735 166.528C35.8562 167.296 36.7735 167.915 37.9255 168.384C39.1202 168.811 40.4215 169.109 41.8295 169.28L46.3735 170.944C47.9522 171.328 49.4668 171.947 50.9175 172.8C52.3682 173.653 53.5415 174.784 54.4375 176.192C55.3762 177.6 55.8455 179.392 55.8455 181.568C55.8455 183.957 55.2055 186.005 53.9255 187.712C52.6455 189.419 50.8535 190.72 48.5495 191.616C46.2882 192.512 43.6215 192.96 40.5495 192.96C37.5202 192.96 34.8535 192.512 32.5495 191.616C30.2882 190.677 28.5175 189.355 27.2375 187.648C26.0002 185.941 25.3815 183.893 25.3815 181.504C25.3815 179.328 25.8722 177.493 26.8535 176C27.8348 174.507 29.0935 173.312 30.6295 172.416C32.2082 171.477 33.8295 170.859 35.4935 170.56ZM46.6295 172.352L41.5095 173.952C38.8642 174.336 36.8162 175.168 35.3655 176.448C33.9575 177.728 33.2535 179.285 33.2535 181.12C33.2535 182.912 33.8935 184.32 35.1735 185.344C36.4962 186.325 38.2882 186.816 40.5495 186.816C42.7682 186.816 44.5602 186.347 45.9255 185.408C47.2908 184.427 47.9735 182.997 47.9735 181.12C47.9735 179.072 47.0562 177.429 45.2215 176.192C43.3868 174.955 40.9122 174.251 37.7975 174.08L34.7895 172.544C32.1868 171.861 30.1175 170.731 28.5815 169.152C27.0882 167.573 26.3415 165.547 26.3415 163.072C26.3415 160.811 26.9388 158.869 28.1335 157.248C29.3282 155.627 30.9922 154.389 33.1255 153.536C35.2588 152.64 37.7335 152.192 40.5495 152.192C44.9868 152.192 48.4855 153.173 51.0455 155.136C53.6055 157.056 54.8855 159.701 54.8855 163.072C54.8855 165.675 54.0962 167.723 52.5175 169.216C50.9388 170.709 48.9762 171.755 46.6295 172.352ZM85.761 172.544C85.761 169.344 85.3983 166.72 84.673 164.672C83.9903 162.624 83.0303 161.109 81.793 160.128C80.5983 159.147 79.1903 158.656 77.569 158.656C76.033 158.656 74.6463 159.168 73.409 160.192C72.1717 161.173 71.2117 162.688 70.529 164.736C69.8463 166.784 69.505 169.387 69.505 172.544C69.505 177.152 70.209 180.629 71.617 182.976C73.025 185.323 75.009 186.496 77.569 186.496C80.1717 186.496 82.177 185.323 83.585 182.976C85.0357 180.629 85.761 177.152 85.761 172.544ZM77.633 192.896C74.433 192.896 71.617 192.149 69.185 190.656C66.7957 189.163 64.9183 186.923 63.553 183.936C62.1877 180.907 61.505 177.109 61.505 172.544C61.505 167.893 62.2303 164.075 63.681 161.088C65.1317 158.101 67.073 155.883 69.505 154.432C71.937 152.981 74.6463 152.256 77.633 152.256C80.577 152.256 83.265 152.981 85.697 154.432C88.1717 155.883 90.1343 158.123 91.585 161.152C93.0357 164.139 93.761 167.936 93.761 172.544C93.761 177.067 93.0783 180.843 91.713 183.872C90.3477 186.859 88.449 189.12 86.017 190.656C83.585 192.149 80.7903 192.896 77.633 192.896ZM118.577 162.176C118.577 165.12 117.66 167.467 115.825 169.216C113.99 170.923 111.686 171.776 108.913 171.776C106.14 171.776 103.836 170.923 102.001 169.216C100.166 167.467 99.249 165.12 99.249 162.176C99.249 159.189 100.166 156.843 102.001 155.136C103.836 153.429 106.14 152.576 108.913 152.576C111.686 152.576 113.99 153.429 115.825 155.136C117.66 156.843 118.577 159.189 118.577 162.176ZM105.329 162.176C105.329 163.627 105.67 164.757 106.353 165.568C107.036 166.336 107.889 166.72 108.913 166.72C109.937 166.72 110.79 166.336 111.473 165.568C112.156 164.757 112.497 163.627 112.497 162.176C112.497 160.683 112.156 159.573 111.473 158.848C110.79 158.08 109.937 157.696 108.913 157.696C107.889 157.696 107.036 158.08 106.353 158.848C105.67 159.573 105.329 160.683 105.329 162.176ZM108.849 186.304L131.697 152.576C132.934 152.704 133.98 153.003 134.833 153.472C135.686 153.941 136.113 154.581 136.113 155.392C136.113 155.904 135.985 156.459 135.729 157.056C135.473 157.611 135.132 158.187 134.705 158.784L111.857 192.448C110.577 192.363 109.51 192.064 108.657 191.552C107.846 190.997 107.441 190.336 107.441 189.568C107.441 189.099 107.569 188.587 107.825 188.032C108.081 187.477 108.422 186.901 108.849 186.304ZM144.177 182.848C144.177 185.835 143.26 188.203 141.425 189.952C139.633 191.659 137.35 192.512 134.577 192.512C131.846 192.512 129.542 191.659 127.665 189.952C125.83 188.203 124.913 185.835 124.913 182.848C124.913 179.904 125.83 177.579 127.665 175.872C129.542 174.165 131.846 173.312 134.577 173.312C137.35 173.312 139.633 174.165 141.425 175.872C143.26 177.579 144.177 179.904 144.177 182.848ZM130.993 182.848C130.993 184.384 131.334 185.536 132.017 186.304C132.7 187.072 133.553 187.456 134.577 187.456C135.601 187.456 136.433 187.072 137.073 186.304C137.756 185.536 138.097 184.384 138.097 182.848C138.097 181.44 137.756 180.352 137.073 179.584C136.433 178.816 135.601 178.432 134.577 178.432C133.553 178.432 132.7 178.816 132.017 179.584C131.334 180.352 130.993 181.44 130.993 182.848ZM163.363 183.18H148.783C148.663 182.964 148.555 182.724 148.459 182.46C148.387 182.172 148.351 181.848 148.351 181.488C148.351 180.84 148.507 180.372 148.819 180.084C149.131 179.772 149.539 179.616 150.043 179.616H164.659C164.755 179.808 164.851 180.06 164.947 180.372C165.043 180.684 165.091 181.02 165.091 181.38C165.091 182.004 164.935 182.46 164.623 182.748C164.311 183.036 163.891 183.18 163.363 183.18ZM158.791 174.864V189.804C158.575 189.852 158.299 189.912 157.963 189.984C157.627 190.032 157.279 190.056 156.919 190.056C156.199 190.056 155.659 189.924 155.299 189.66C154.939 189.396 154.759 188.868 154.759 188.076V173.172C154.975 173.124 155.251 173.064 155.587 172.992C155.923 172.92 156.283 172.884 156.667 172.884C157.363 172.884 157.891 173.028 158.251 173.316C158.611 173.58 158.791 174.096 158.791 174.864Z" fill="#750077"/>
<path d="M1.848 219.672L4.56 219.6C4.624 220.208 4.672 220.848 4.704 221.52C4.752 222.192 4.776 222.856 4.776 223.512C4.792 224.168 4.8 224.8 4.8 225.408V230.976C4.688 231.008 4.496 231.04 4.224 231.072C3.968 231.12 3.712 231.144 3.456 231.144C2.88 231.144 2.464 231.048 2.208 230.856C1.968 230.648 1.848 230.288 1.848 229.776V219.672ZM14.208 227.712L11.472 227.784C11.344 226.552 11.272 225.352 11.256 224.184C11.24 223 11.232 221.856 11.232 220.752V216.432C11.376 216.4 11.568 216.36 11.808 216.312C12.064 216.264 12.336 216.24 12.624 216.24C13.184 216.24 13.584 216.344 13.824 216.552C14.08 216.76 14.208 217.112 14.208 217.608V227.712ZM14.208 226.728V230.616C14.016 230.776 13.76 230.904 13.44 231C13.12 231.112 12.752 231.168 12.336 231.168C11.84 231.168 11.392 231.088 10.992 230.928C10.608 230.768 10.28 230.416 10.008 229.872L6.48 223.56C6.288 223.176 6.08 222.776 5.856 222.36C5.648 221.944 5.448 221.536 5.256 221.136C5.064 220.736 4.888 220.368 4.728 220.032L1.848 220.704V216.936C2.024 216.712 2.28 216.544 2.616 216.432C2.968 216.32 3.344 216.264 3.744 216.264C4.224 216.264 4.664 216.344 5.064 216.504C5.464 216.664 5.8 217.008 6.072 217.536L9.6 223.848C9.808 224.232 10.016 224.632 10.224 225.048C10.448 225.464 10.648 225.872 10.824 226.272C11.016 226.672 11.184 227.04 11.328 227.376L14.208 226.728ZM28.7267 225.312C28.7267 226.544 28.4867 227.616 28.0067 228.528C27.5267 229.424 26.8467 230.12 25.9667 230.616C25.1027 231.096 24.0787 231.336 22.8947 231.336C21.7107 231.336 20.6787 231.096 19.7987 230.616C18.9187 230.12 18.2307 229.424 17.7347 228.528C17.2547 227.632 17.0147 226.56 17.0147 225.312C17.0147 224.08 17.2627 223.016 17.7587 222.12C18.2547 221.224 18.9427 220.536 19.8227 220.056C20.7027 219.56 21.7267 219.312 22.8947 219.312C24.0627 219.312 25.0787 219.56 25.9427 220.056C26.8227 220.536 27.5027 221.232 27.9827 222.144C28.4787 223.04 28.7267 224.096 28.7267 225.312ZM22.8947 221.664C22.0147 221.664 21.3187 221.984 20.8067 222.624C20.3107 223.264 20.0627 224.16 20.0627 225.312C20.0627 226.496 20.3107 227.408 20.8067 228.048C21.3027 228.672 21.9987 228.984 22.8947 228.984C23.7747 228.984 24.4627 228.664 24.9587 228.024C25.4547 227.384 25.7027 226.48 25.7027 225.312C25.7027 224.176 25.4547 223.288 24.9587 222.648C24.4627 221.992 23.7747 221.664 22.8947 221.664ZM34.2068 222.36V225.648H31.2548V222.12C31.2548 221.72 31.3508 221.384 31.5428 221.112C31.7348 220.824 32.0068 220.56 32.3588 220.32C32.8388 220.032 33.4468 219.792 34.1828 219.6C34.9188 219.408 35.7108 219.312 36.5588 219.312C38.0628 219.312 38.8148 219.776 38.8148 220.704C38.8148 220.928 38.7828 221.136 38.7188 221.328C38.6548 221.504 38.5748 221.664 38.4788 221.808C38.3188 221.776 38.1188 221.752 37.8788 221.736C37.6388 221.704 37.3828 221.688 37.1108 221.688C36.5348 221.688 35.9908 221.752 35.4788 221.88C34.9828 221.992 34.5588 222.152 34.2068 222.36ZM31.2548 224.664L34.2068 224.808V230.952C34.0788 231 33.8948 231.04 33.6548 231.072C33.4148 231.12 33.1508 231.144 32.8628 231.144C32.3188 231.144 31.9108 231.048 31.6388 230.856C31.3828 230.648 31.2548 230.288 31.2548 229.776V224.664ZM50.5183 223.152V225.888H47.5663V223.488C47.5663 222.864 47.3743 222.408 46.9903 222.12C46.6223 221.816 46.1503 221.664 45.5743 221.664C45.1583 221.664 44.7743 221.728 44.4223 221.856C44.0863 221.968 43.7983 222.104 43.5583 222.264V225.888H40.6063V222.072C40.6063 221.688 40.6863 221.376 40.8463 221.136C41.0063 220.88 41.2463 220.648 41.5663 220.44C42.0623 220.104 42.6703 219.832 43.3903 219.624C44.1263 219.416 44.8863 219.312 45.6703 219.312C46.4543 219.312 47.1743 219.432 47.8303 219.672C48.4863 219.912 49.0223 220.264 49.4383 220.728C49.5503 220.824 49.6543 220.92 49.7503 221.016C49.8463 221.112 49.9263 221.224 49.9903 221.352C50.1343 221.592 50.2543 221.872 50.3503 222.192C50.4623 222.496 50.5183 222.816 50.5183 223.152ZM57.4543 223.392V225.888H54.5023V223.488C54.5023 222.864 54.3263 222.408 53.9743 222.12C53.6223 221.816 53.1503 221.664 52.5583 221.664C52.1263 221.664 51.7023 221.752 51.2863 221.928C50.8863 222.104 50.5423 222.336 50.2543 222.624L48.7663 220.824C49.2623 220.408 49.8463 220.056 50.5183 219.768C51.1903 219.464 51.9903 219.312 52.9183 219.312C53.7663 219.312 54.5343 219.448 55.2223 219.72C55.9103 219.992 56.4543 220.432 56.8543 221.04C57.2543 221.648 57.4543 222.432 57.4543 223.392ZM40.6063 224.736H43.5583V230.952C43.4303 231 43.2463 231.04 43.0063 231.072C42.7663 231.12 42.5023 231.144 42.2143 231.144C41.6703 231.144 41.2623 231.048 40.9903 230.856C40.7343 230.648 40.6063 230.288 40.6063 229.776V224.736ZM47.5663 224.736H50.5183V230.952C50.3903 231 50.1983 231.04 49.9423 231.072C49.7023 231.12 49.4463 231.144 49.1743 231.144C48.6143 231.144 48.2063 231.048 47.9503 230.856C47.6943 230.648 47.5663 230.288 47.5663 229.776V224.736ZM54.5023 224.736H57.4543V230.952C57.3423 231 57.1583 231.04 56.9023 231.072C56.6623 231.12 56.4063 231.144 56.1343 231.144C55.5743 231.144 55.1583 231.048 54.8863 230.856C54.6303 230.648 54.5023 230.288 54.5023 229.776V224.736ZM65.0156 229.104C65.4956 229.104 65.9276 229.056 66.3116 228.96C66.6956 228.864 66.9756 228.76 67.1516 228.648V225.912L64.7756 226.152C64.1196 226.2 63.6156 226.344 63.2636 226.584C62.9276 226.808 62.7596 227.144 62.7596 227.592C62.7596 228.056 62.9436 228.424 63.3116 228.696C63.6796 228.968 64.2476 229.104 65.0156 229.104ZM64.8956 219.312C66.4636 219.312 67.7116 219.648 68.6396 220.32C69.5676 220.976 70.0316 222.016 70.0316 223.44V228.96C70.0316 229.344 69.9356 229.648 69.7436 229.872C69.5676 230.096 69.3356 230.296 69.0476 230.472C68.5996 230.728 68.0316 230.936 67.3436 231.096C66.6556 231.272 65.8796 231.36 65.0156 231.36C63.4156 231.36 62.1596 231.056 61.2476 230.448C60.3356 229.824 59.8796 228.904 59.8796 227.688C59.8796 226.616 60.2156 225.8 60.8876 225.24C61.5756 224.664 62.5676 224.312 63.8636 224.184L67.1276 223.848V223.416C67.1276 222.776 66.9036 222.312 66.4556 222.024C66.0236 221.736 65.4076 221.592 64.6076 221.592C63.9836 221.592 63.3756 221.672 62.7836 221.832C62.1916 221.992 61.6636 222.184 61.1996 222.408C61.0396 222.28 60.8956 222.104 60.7676 221.88C60.6396 221.656 60.5756 221.424 60.5756 221.184C60.5756 220.608 60.8956 220.184 61.5356 219.912C61.9836 219.704 62.5036 219.552 63.0956 219.456C63.7036 219.36 64.3036 219.312 64.8956 219.312ZM73.2353 224.664L76.1873 224.808V230.952C76.0593 231 75.8753 231.04 75.6353 231.072C75.3953 231.12 75.1313 231.144 74.8433 231.144C74.2993 231.144 73.8913 231.048 73.6193 230.856C73.3633 230.648 73.2353 230.288 73.2353 229.776V224.664ZM76.1873 226.32L73.2353 226.176V215.4C73.3473 215.368 73.5233 215.328 73.7633 215.28C74.0193 215.232 74.2833 215.208 74.5553 215.208C75.1313 215.208 75.5473 215.312 75.8033 215.52C76.0593 215.712 76.1873 216.064 76.1873 216.576V226.32ZM94.2801 223.656C94.2801 222.472 94.0641 221.512 93.6321 220.776C93.2161 220.024 92.6401 219.472 91.9041 219.12C91.1841 218.752 90.3601 218.568 89.4321 218.568C89.0801 218.568 88.7441 218.584 88.4241 218.616C88.1201 218.632 87.8241 218.664 87.5361 218.712V228.672C87.8241 228.736 88.1441 228.784 88.4961 228.816C88.8481 228.832 89.2001 228.84 89.5521 228.84C91.0401 228.84 92.2001 228.408 93.0321 227.544C93.8641 226.664 94.2801 225.368 94.2801 223.656ZM97.4001 223.608C97.4001 225.336 97.0721 226.776 96.4161 227.928C95.7601 229.064 94.8481 229.912 93.6801 230.472C92.5121 231.032 91.1361 231.312 89.5521 231.312C89.0241 231.312 88.4001 231.28 87.6801 231.216C86.9601 231.168 86.2961 231.04 85.6881 230.832C84.9041 230.56 84.5121 230.088 84.5121 229.416V217.632C84.5121 217.328 84.5921 217.096 84.7521 216.936C84.9281 216.776 85.1521 216.648 85.4241 216.552C86.0161 216.376 86.6561 216.256 87.3441 216.192C88.0481 216.128 88.7041 216.096 89.3121 216.096C90.9281 216.096 92.3361 216.376 93.5361 216.936C94.7521 217.48 95.6961 218.304 96.3681 219.408C97.0561 220.512 97.4001 221.912 97.4001 223.608ZM101.34 226.824L101.22 224.76L107.652 223.8C107.604 223.192 107.372 222.664 106.956 222.216C106.54 221.768 105.932 221.544 105.132 221.544C104.316 221.544 103.636 221.832 103.092 222.408C102.548 222.968 102.268 223.776 102.252 224.832L102.324 226.08C102.468 227.104 102.86 227.856 103.5 228.336C104.156 228.816 104.98 229.056 105.972 229.056C106.644 229.056 107.268 228.96 107.844 228.768C108.42 228.56 108.876 228.336 109.212 228.096C109.436 228.24 109.612 228.424 109.74 228.648C109.884 228.856 109.956 229.088 109.956 229.344C109.956 229.76 109.772 230.12 109.404 230.424C109.036 230.712 108.54 230.936 107.916 231.096C107.292 231.256 106.58 231.336 105.78 231.336C104.548 231.336 103.452 231.112 102.492 230.664C101.548 230.2 100.804 229.512 100.26 228.6C99.7318 227.688 99.4678 226.552 99.4678 225.192C99.4678 224.216 99.6198 223.36 99.9238 222.624C100.228 221.888 100.636 221.28 101.148 220.8C101.676 220.304 102.284 219.936 102.972 219.696C103.66 219.44 104.38 219.312 105.132 219.312C106.188 219.312 107.108 219.528 107.892 219.96C108.692 220.376 109.316 220.96 109.764 221.712C110.228 222.464 110.46 223.328 110.46 224.304C110.46 224.752 110.34 225.088 110.1 225.312C109.876 225.52 109.556 225.648 109.14 225.696L101.34 226.824ZM113.009 224.664L115.961 224.808V230.952C115.833 231 115.649 231.04 115.409 231.072C115.169 231.12 114.905 231.144 114.617 231.144C114.073 231.144 113.665 231.048 113.393 230.856C113.137 230.648 113.009 230.288 113.009 229.776V224.664ZM115.961 226.32L113.009 226.176V215.4C113.121 215.368 113.297 215.328 113.537 215.28C113.793 215.232 114.057 215.208 114.329 215.208C114.905 215.208 115.321 215.312 115.577 215.52C115.833 215.712 115.961 216.064 115.961 216.576V226.32ZM119.048 216.264C119.048 215.8 119.208 215.408 119.528 215.088C119.864 214.768 120.28 214.608 120.776 214.608C121.288 214.608 121.696 214.768 122 215.088C122.32 215.408 122.48 215.8 122.48 216.264C122.48 216.712 122.32 217.104 122 217.44C121.696 217.76 121.288 217.92 120.776 217.92C120.28 217.92 119.864 217.76 119.528 217.44C119.208 217.104 119.048 216.712 119.048 216.264ZM119.288 224.664H122.264V230.952C122.136 231 121.952 231.04 121.712 231.072C121.472 231.12 121.208 231.144 120.92 231.144C120.376 231.144 119.968 231.048 119.696 230.856C119.424 230.648 119.288 230.288 119.288 229.776V224.664ZM122.264 226.176H119.288V219.744C119.416 219.696 119.6 219.656 119.84 219.624C120.096 219.576 120.368 219.552 120.656 219.552C121.216 219.552 121.624 219.656 121.88 219.864C122.136 220.056 122.264 220.416 122.264 220.944V226.176ZM134.21 219.408C134.626 219.408 134.97 219.504 135.242 219.696C135.514 219.888 135.65 220.192 135.65 220.608C135.65 220.864 135.562 221.296 135.386 221.904C135.226 222.496 135.01 223.192 134.738 223.992C134.466 224.792 134.162 225.616 133.826 226.464C133.506 227.312 133.178 228.12 132.842 228.888C132.506 229.64 132.202 230.272 131.93 230.784C131.786 230.896 131.554 230.992 131.234 231.072C130.93 231.152 130.586 231.192 130.202 231.192C129.754 231.192 129.37 231.128 129.05 231C128.73 230.888 128.506 230.704 128.378 230.448C128.202 230.112 127.978 229.64 127.706 229.032C127.45 228.424 127.17 227.728 126.866 226.944C126.562 226.16 126.258 225.352 125.954 224.52C125.65 223.688 125.37 222.888 125.114 222.12C124.874 221.352 124.674 220.672 124.514 220.08C124.69 219.888 124.914 219.728 125.186 219.6C125.474 219.472 125.77 219.408 126.074 219.408C126.49 219.408 126.826 219.504 127.082 219.696C127.354 219.872 127.554 220.2 127.682 220.68L128.906 224.688C129.034 225.104 129.178 225.56 129.338 226.056C129.514 226.536 129.674 227 129.818 227.448C129.962 227.88 130.082 228.248 130.178 228.552H130.274C130.754 227.144 131.218 225.68 131.666 224.16C132.13 222.64 132.53 221.16 132.866 219.72C133.25 219.512 133.698 219.408 134.21 219.408ZM139.027 226.824L138.907 224.76L145.339 223.8C145.291 223.192 145.059 222.664 144.643 222.216C144.227 221.768 143.619 221.544 142.819 221.544C142.003 221.544 141.323 221.832 140.779 222.408C140.235 222.968 139.955 223.776 139.939 224.832L140.011 226.08C140.155 227.104 140.547 227.856 141.187 228.336C141.843 228.816 142.667 229.056 143.659 229.056C144.331 229.056 144.955 228.96 145.531 228.768C146.107 228.56 146.563 228.336 146.899 228.096C147.123 228.24 147.299 228.424 147.427 228.648C147.571 228.856 147.643 229.088 147.643 229.344C147.643 229.76 147.459 230.12 147.091 230.424C146.723 230.712 146.227 230.936 145.603 231.096C144.979 231.256 144.267 231.336 143.467 231.336C142.235 231.336 141.139 231.112 140.179 230.664C139.235 230.2 138.491 229.512 137.947 228.6C137.419 227.688 137.155 226.552 137.155 225.192C137.155 224.216 137.307 223.36 137.611 222.624C137.915 221.888 138.323 221.28 138.835 220.8C139.363 220.304 139.971 219.936 140.659 219.696C141.347 219.44 142.067 219.312 142.819 219.312C143.875 219.312 144.795 219.528 145.579 219.96C146.379 220.376 147.003 220.96 147.451 221.712C147.915 222.464 148.147 223.328 148.147 224.304C148.147 224.752 148.027 225.088 147.787 225.312C147.563 225.52 147.243 225.648 146.827 225.696L139.027 226.824ZM153.48 222.36V225.648H150.528V222.12C150.528 221.72 150.624 221.384 150.816 221.112C151.008 220.824 151.28 220.56 151.632 220.32C152.112 220.032 152.72 219.792 153.456 219.6C154.192 219.408 154.984 219.312 155.832 219.312C157.336 219.312 158.088 219.776 158.088 220.704C158.088 220.928 158.056 221.136 157.992 221.328C157.928 221.504 157.848 221.664 157.752 221.808C157.592 221.776 157.392 221.752 157.152 221.736C156.912 221.704 156.656 221.688 156.384 221.688C155.808 221.688 155.264 221.752 154.752 221.88C154.256 221.992 153.832 222.152 153.48 222.36ZM150.528 224.664L153.48 224.808V230.952C153.352 231 153.168 231.04 152.928 231.072C152.688 231.12 152.424 231.144 152.136 231.144C151.592 231.144 151.184 231.048 150.912 230.856C150.656 230.648 150.528 230.288 150.528 229.776V224.664ZM159.9 216.264C159.9 215.8 160.06 215.408 160.38 215.088C160.716 214.768 161.132 214.608 161.628 214.608C162.14 214.608 162.548 214.768 162.852 215.088C163.172 215.408 163.332 215.8 163.332 216.264C163.332 216.712 163.172 217.104 162.852 217.44C162.548 217.76 162.14 217.92 161.628 217.92C161.132 217.92 160.716 217.76 160.38 217.44C160.06 217.104 159.9 216.712 159.9 216.264ZM160.14 224.664H163.116V230.952C162.988 231 162.804 231.04 162.564 231.072C162.324 231.12 162.06 231.144 161.772 231.144C161.228 231.144 160.82 231.048 160.548 230.856C160.276 230.648 160.14 230.288 160.14 229.776V224.664ZM163.116 226.176H160.14V219.744C160.268 219.696 160.452 219.656 160.692 219.624C160.948 219.576 161.22 219.552 161.508 219.552C162.068 219.552 162.476 219.656 162.732 219.864C162.988 220.056 163.116 220.416 163.116 220.944V226.176ZM167.598 226.824L167.478 224.76L173.91 223.8C173.862 223.192 173.63 222.664 173.214 222.216C172.798 221.768 172.19 221.544 171.39 221.544C170.574 221.544 169.894 221.832 169.35 222.408C168.806 222.968 168.526 223.776 168.51 224.832L168.582 226.08C168.726 227.104 169.118 227.856 169.758 228.336C170.414 228.816 171.238 229.056 172.23 229.056C172.902 229.056 173.526 228.96 174.102 228.768C174.678 228.56 175.134 228.336 175.47 228.096C175.694 228.24 175.87 228.424 175.998 228.648C176.142 228.856 176.214 229.088 176.214 229.344C176.214 229.76 176.03 230.12 175.662 230.424C175.294 230.712 174.798 230.936 174.174 231.096C173.55 231.256 172.838 231.336 172.038 231.336C170.806 231.336 169.71 231.112 168.75 230.664C167.806 230.2 167.062 229.512 166.518 228.6C165.99 227.688 165.726 226.552 165.726 225.192C165.726 224.216 165.878 223.36 166.182 222.624C166.486 221.888 166.894 221.28 167.406 220.8C167.934 220.304 168.542 219.936 169.23 219.696C169.918 219.44 170.638 219.312 171.39 219.312C172.446 219.312 173.366 219.528 174.15 219.96C174.95 220.376 175.574 220.96 176.022 221.712C176.486 222.464 176.718 223.328 176.718 224.304C176.718 224.752 176.598 225.088 176.358 225.312C176.134 225.52 175.814 225.648 175.398 225.696L167.598 226.824ZM187.953 227.784C187.953 228.904 187.537 229.784 186.705 230.424C185.873 231.048 184.665 231.36 183.081 231.36C181.801 231.36 180.753 231.168 179.937 230.784C179.121 230.4 178.713 229.888 178.713 229.248C178.713 228.976 178.777 228.728 178.905 228.504C179.033 228.264 179.201 228.08 179.409 227.952C179.857 228.24 180.377 228.496 180.969 228.72C181.561 228.944 182.233 229.056 182.985 229.056C184.345 229.056 185.025 228.64 185.025 227.808C185.025 227.456 184.905 227.176 184.665 226.968C184.425 226.744 184.057 226.584 183.561 226.488L182.193 226.128C181.025 225.872 180.153 225.472 179.577 224.928C179.017 224.384 178.737 223.656 178.737 222.744C178.737 221.736 179.153 220.912 179.985 220.272C180.817 219.616 181.969 219.288 183.441 219.288C184.209 219.288 184.897 219.368 185.505 219.528C186.113 219.672 186.585 219.888 186.921 220.176C187.273 220.464 187.449 220.808 187.449 221.208C187.449 221.48 187.385 221.728 187.257 221.952C187.145 222.16 186.993 222.32 186.801 222.432C186.609 222.32 186.345 222.2 186.009 222.072C185.689 221.928 185.321 221.816 184.905 221.736C184.489 221.64 184.073 221.592 183.657 221.592C183.033 221.592 182.537 221.696 182.169 221.904C181.817 222.096 181.641 222.376 181.641 222.744C181.641 223.016 181.745 223.248 181.953 223.44C182.161 223.632 182.513 223.784 183.009 223.896L184.233 224.184C185.529 224.488 186.473 224.936 187.065 225.528C187.657 226.104 187.953 226.856 187.953 227.784Z" fill="#4B4B4B"/>
<circle cx="454.5" cy="69.5" r="63.5" fill="white"/>
<path fill-rule="evenodd" clip-rule="evenodd" d="M439.601 52.7833L439.617 55.8701C439.622 56.5486 439.349 57.2012 438.863 57.6829C438.377 58.1646 437.717 58.4365 437.027 58.4365H437.021C434.93 58.4365 432.926 59.2548 431.447 60.7102C429.965 62.1682 429.135 64.1441 429.135 66.2054C429.135 74.1712 429.135 89.3466 429.135 97.315C429.135 99.3763 429.965 101.352 431.447 102.81C432.926 104.266 434.93 105.084 437.021 105.084C446.122 105.084 464.69 105.084 473.787 105.084C475.879 105.084 477.886 104.266 479.365 102.81C480.844 101.352 481.677 99.3763 481.677 97.315C481.677 89.3466 481.677 74.1712 481.677 66.2054C481.677 64.1441 480.844 62.1682 479.365 60.7102C477.886 59.2548 475.879 58.4365 473.787 58.4365C472.343 58.4365 471.166 57.2815 471.163 55.8572L471.158 52.7677C472.24 52.3844 473.238 51.7681 474.069 50.9498C475.545 49.4918 476.375 47.5159 476.375 45.4571V40.3451C476.375 38.2838 475.545 36.3079 474.069 34.8499C472.59 33.3945 470.585 32.5762 468.494 32.5762H442.223C440.134 32.5762 438.13 33.3945 436.651 34.8499C435.172 36.3079 434.342 38.2838 434.342 40.3451C434.342 41.9896 434.342 43.8101 434.342 45.4571C434.342 47.5159 435.172 49.4918 436.651 50.9498C437.492 51.7785 438.5 52.4 439.601 52.7833ZM473.785 63.6158C474.484 63.6158 475.156 63.8877 475.65 64.3745C476.144 64.8614 476.422 65.5192 476.422 66.2054V97.315C476.422 98.0012 476.144 98.659 475.65 99.1433C475.156 99.6301 474.486 99.9046 473.787 99.9046H437.021C436.322 99.9046 435.653 99.6301 435.159 99.1433C434.665 98.659 434.389 98.0012 434.389 97.315V66.2054C434.389 65.5192 434.665 64.8614 435.159 64.3745C435.653 63.8877 436.322 63.6158 437.021 63.6158H437.027C439.115 63.6158 441.117 62.7949 442.588 61.3369C444.059 59.8763 444.882 57.9004 444.871 55.8416L444.858 53.2908H465.904L465.909 55.8675C465.917 60.1482 469.442 63.6158 473.785 63.6158ZM471.121 40.3451V45.4571C471.121 46.1434 470.845 46.8011 470.351 47.288C469.86 47.7723 469.193 48.0468 468.494 48.0468H442.223C441.527 48.0468 440.859 47.7723 440.366 47.288C439.874 46.8011 439.596 46.1434 439.596 45.4571V40.3451C439.596 39.6563 439.874 38.9985 440.366 38.5143C440.859 38.0274 441.527 37.7555 442.223 37.7555H468.494C469.193 37.7555 469.86 38.0274 470.351 38.5143C470.845 38.9985 471.121 39.6563 471.121 40.3451Z" fill="#750077"/>
<path fill-rule="evenodd" clip-rule="evenodd" d="M452.307 74.8876H447.22C445.824 74.8876 444.691 76.0204 444.691 77.4161C444.691 78.8119 445.824 79.9447 447.22 79.9447H452.307V85.0297C452.307 86.4255 453.44 87.5583 454.836 87.5583C456.232 87.5583 457.365 86.4255 457.365 85.0297V79.9447H462.45C463.845 79.9447 464.978 78.8119 464.978 77.4161C464.978 76.0204 463.845 74.8876 462.45 74.8876H457.365V69.8001C457.365 68.4043 456.232 67.2715 454.836 67.2715C453.44 67.2715 452.307 68.4043 452.307 69.8001V74.8876Z" fill="#750077"/>
<path d="M402.632 153.088H425.288C425.885 153.429 426.376 153.92 426.76 154.56C427.186 155.2 427.4 155.968 427.4 156.864C427.4 157.419 427.336 157.973 427.208 158.528C427.122 159.083 426.93 159.659 426.632 160.256L411.912 192.32C411.485 192.363 411.08 192.384 410.696 192.384C410.312 192.384 409.949 192.384 409.608 192.384C408.285 192.384 407.176 192.107 406.28 191.552C405.384 190.997 404.936 190.101 404.936 188.864C404.936 188.181 405.085 187.456 405.384 186.688C405.725 185.92 406.152 185.024 406.664 184L418.632 159.552H400.584C400.413 159.211 400.221 158.763 400.008 158.208C399.837 157.653 399.752 157.056 399.752 156.416C399.752 155.264 400.008 154.432 400.52 153.92C401.074 153.365 401.778 153.088 402.632 153.088ZM434.007 153.088H456.663C457.26 153.429 457.751 153.92 458.135 154.56C458.561 155.2 458.775 155.968 458.775 156.864C458.775 157.419 458.711 157.973 458.583 158.528C458.497 159.083 458.305 159.659 458.007 160.256L443.287 192.32C442.86 192.363 442.455 192.384 442.071 192.384C441.687 192.384 441.324 192.384 440.983 192.384C439.66 192.384 438.551 192.107 437.655 191.552C436.759 190.997 436.311 190.101 436.311 188.864C436.311 188.181 436.46 187.456 436.759 186.688C437.1 185.92 437.527 185.024 438.039 184L450.007 159.552H431.959C431.788 159.211 431.596 158.763 431.383 158.208C431.212 157.653 431.127 157.056 431.127 156.416C431.127 155.264 431.383 154.432 431.895 153.92C432.449 153.365 433.153 153.088 434.007 153.088ZM482.358 162.176C482.358 165.12 481.441 167.467 479.606 169.216C477.772 170.923 475.468 171.776 472.694 171.776C469.921 171.776 467.617 170.923 465.782 169.216C463.948 167.467 463.03 165.12 463.03 162.176C463.03 159.189 463.948 156.843 465.782 155.136C467.617 153.429 469.921 152.576 472.694 152.576C475.468 152.576 477.772 153.429 479.606 155.136C481.441 156.843 482.358 159.189 482.358 162.176ZM469.11 162.176C469.11 163.627 469.452 164.757 470.134 165.568C470.817 166.336 471.67 166.72 472.694 166.72C473.718 166.72 474.572 166.336 475.254 165.568C475.937 164.757 476.278 163.627 476.278 162.176C476.278 160.683 475.937 159.573 475.254 158.848C474.572 158.08 473.718 157.696 472.694 157.696C471.67 157.696 470.817 158.08 470.134 158.848C469.452 159.573 469.11 160.683 469.11 162.176ZM472.63 186.304L495.478 152.576C496.716 152.704 497.761 153.003 498.614 153.472C499.468 153.941 499.894 154.581 499.894 155.392C499.894 155.904 499.766 156.459 499.51 157.056C499.254 157.611 498.913 158.187 498.486 158.784L475.638 192.448C474.358 192.363 473.292 192.064 472.438 191.552C471.628 190.997 471.222 190.336 471.222 189.568C471.222 189.099 471.35 188.587 471.606 188.032C471.862 187.477 472.204 186.901 472.63 186.304ZM507.958 182.848C507.958 185.835 507.041 188.203 505.206 189.952C503.414 191.659 501.132 192.512 498.358 192.512C495.628 192.512 493.324 191.659 491.446 189.952C489.612 188.203 488.694 185.835 488.694 182.848C488.694 179.904 489.612 177.579 491.446 175.872C493.324 174.165 495.628 173.312 498.358 173.312C501.132 173.312 503.414 174.165 505.206 175.872C507.041 177.579 507.958 179.904 507.958 182.848ZM494.774 182.848C494.774 184.384 495.116 185.536 495.798 186.304C496.481 187.072 497.334 187.456 498.358 187.456C499.382 187.456 500.214 187.072 500.854 186.304C501.537 185.536 501.878 184.384 501.878 182.848C501.878 181.44 501.537 180.352 500.854 179.584C500.214 178.816 499.382 178.432 498.358 178.432C497.334 178.432 496.481 178.816 495.798 179.584C495.116 180.352 494.774 181.44 494.774 182.848Z" fill="#750077"/>
<path d="M348.372 221.376H351.396V230.952C351.268 231 351.076 231.04 350.82 231.072C350.564 231.12 350.292 231.144 350.004 231.144C349.428 231.144 349.012 231.04 348.756 230.832C348.5 230.608 348.372 230.24 348.372 229.728V221.376ZM351.396 224.88H348.372V216.432C348.5 216.4 348.7 216.36 348.972 216.312C349.244 216.264 349.516 216.24 349.788 216.24C350.348 216.24 350.756 216.344 351.012 216.552C351.268 216.744 351.396 217.112 351.396 217.656V224.88ZM365.321 223.584V225.912H362.369V223.704C362.369 223 362.169 222.488 361.769 222.168C361.369 221.832 360.833 221.664 360.161 221.664C359.665 221.664 359.217 221.728 358.817 221.856C358.433 221.968 358.089 222.104 357.785 222.264V225.912H354.833V222.072C354.833 221.688 354.913 221.376 355.073 221.136C355.233 220.88 355.473 220.648 355.793 220.44C356.273 220.12 356.889 219.856 357.641 219.648C358.409 219.424 359.257 219.312 360.185 219.312C361.801 219.312 363.057 219.672 363.953 220.392C364.865 221.112 365.321 222.176 365.321 223.584ZM354.833 224.736H357.785V230.952C357.657 231 357.473 231.04 357.233 231.072C356.993 231.12 356.729 231.144 356.441 231.144C355.897 231.144 355.489 231.048 355.217 230.856C354.961 230.648 354.833 230.288 354.833 229.776V224.736ZM362.369 224.736H365.321V230.952C365.209 231 365.025 231.04 364.769 231.072C364.529 231.12 364.273 231.144 364.001 231.144C363.441 231.144 363.025 231.048 362.753 230.856C362.497 230.648 362.369 230.288 362.369 229.776V224.736ZM370.851 222.696V220.392H375.675C375.739 220.504 375.803 220.664 375.867 220.872C375.947 221.064 375.987 221.288 375.987 221.544C375.987 221.944 375.891 222.24 375.699 222.432C375.523 222.608 375.267 222.696 374.931 222.696H370.851ZM371.307 219.24V222.336H368.475V219.12C368.475 218.112 368.675 217.296 369.075 216.672C369.491 216.032 370.059 215.568 370.779 215.28C371.515 214.976 372.347 214.824 373.275 214.824C374.315 214.824 375.107 214.96 375.651 215.232C376.195 215.504 376.467 215.912 376.467 216.456C376.467 216.696 376.411 216.92 376.299 217.128C376.203 217.32 376.083 217.48 375.939 217.608C375.635 217.48 375.291 217.376 374.907 217.296C374.539 217.216 374.147 217.176 373.731 217.176C372.883 217.176 372.267 217.336 371.883 217.656C371.499 217.976 371.307 218.504 371.307 219.24ZM368.475 221.496H371.427V230.952C371.299 231 371.115 231.04 370.875 231.072C370.635 231.12 370.371 231.144 370.083 231.144C369.539 231.144 369.131 231.048 368.859 230.856C368.603 230.648 368.475 230.288 368.475 229.776V221.496ZM379.027 226.824L378.907 224.76L385.339 223.8C385.291 223.192 385.059 222.664 384.643 222.216C384.227 221.768 383.619 221.544 382.819 221.544C382.003 221.544 381.323 221.832 380.779 222.408C380.235 222.968 379.955 223.776 379.939 224.832L380.011 226.08C380.155 227.104 380.547 227.856 381.187 228.336C381.843 228.816 382.667 229.056 383.659 229.056C384.331 229.056 384.955 228.96 385.531 228.768C386.107 228.56 386.563 228.336 386.899 228.096C387.123 228.24 387.299 228.424 387.427 228.648C387.571 228.856 387.643 229.088 387.643 229.344C387.643 229.76 387.459 230.12 387.091 230.424C386.723 230.712 386.227 230.936 385.603 231.096C384.979 231.256 384.267 231.336 383.467 231.336C382.235 231.336 381.139 231.112 380.179 230.664C379.235 230.2 378.491 229.512 377.947 228.6C377.419 227.688 377.155 226.552 377.155 225.192C377.155 224.216 377.307 223.36 377.611 222.624C377.915 221.888 378.323 221.28 378.835 220.8C379.363 220.304 379.971 219.936 380.659 219.696C381.347 219.44 382.067 219.312 382.819 219.312C383.875 219.312 384.795 219.528 385.579 219.96C386.379 220.376 387.003 220.96 387.451 221.712C387.915 222.464 388.147 223.328 388.147 224.304C388.147 224.752 388.027 225.088 387.787 225.312C387.563 225.52 387.243 225.648 386.827 225.696L379.027 226.824ZM393.48 222.36V225.648H390.528V222.12C390.528 221.72 390.624 221.384 390.816 221.112C391.008 220.824 391.28 220.56 391.632 220.32C392.112 220.032 392.72 219.792 393.456 219.6C394.192 219.408 394.984 219.312 395.832 219.312C397.336 219.312 398.088 219.776 398.088 220.704C398.088 220.928 398.056 221.136 397.992 221.328C397.928 221.504 397.848 221.664 397.752 221.808C397.592 221.776 397.392 221.752 397.152 221.736C396.912 221.704 396.656 221.688 396.384 221.688C395.808 221.688 395.264 221.752 394.752 221.88C394.256 221.992 393.832 222.152 393.48 222.36ZM390.528 224.664L393.48 224.808V230.952C393.352 231 393.168 231.04 392.928 231.072C392.688 231.12 392.424 231.144 392.136 231.144C391.592 231.144 391.184 231.048 390.912 230.856C390.656 230.648 390.528 230.288 390.528 229.776V224.664ZM400.068 224.664H403.02V227.496C403.02 228.024 403.172 228.4 403.476 228.624C403.796 228.848 404.244 228.96 404.82 228.96C405.076 228.96 405.348 228.928 405.636 228.864C405.94 228.8 406.196 228.72 406.404 228.624C406.516 228.752 406.62 228.904 406.716 229.08C406.812 229.256 406.86 229.472 406.86 229.728C406.86 230.192 406.636 230.576 406.188 230.88C405.756 231.184 405.076 231.336 404.148 231.336C402.884 231.336 401.884 231.056 401.148 230.496C400.428 229.92 400.068 228.992 400.068 227.712V224.664ZM401.868 222.216V219.888H406.572C406.636 220 406.7 220.16 406.764 220.368C406.844 220.576 406.884 220.792 406.884 221.016C406.884 221.416 406.788 221.72 406.596 221.928C406.404 222.12 406.156 222.216 405.852 222.216H401.868ZM403.02 225.312H400.068V216.672C400.196 216.624 400.38 216.576 400.62 216.528C400.876 216.48 401.14 216.456 401.412 216.456C401.972 216.456 402.38 216.56 402.636 216.768C402.892 216.96 403.02 217.312 403.02 217.824V225.312ZM409.111 216.264C409.111 215.8 409.271 215.408 409.591 215.088C409.927 214.768 410.343 214.608 410.839 214.608C411.351 214.608 411.759 214.768 412.063 215.088C412.383 215.408 412.543 215.8 412.543 216.264C412.543 216.712 412.383 217.104 412.063 217.44C411.759 217.76 411.351 217.92 410.839 217.92C410.343 217.92 409.927 217.76 409.591 217.44C409.271 217.104 409.111 216.712 409.111 216.264ZM409.351 224.664H412.327V230.952C412.199 231 412.015 231.04 411.775 231.072C411.535 231.12 411.271 231.144 410.983 231.144C410.439 231.144 410.031 231.048 409.759 230.856C409.487 230.648 409.351 230.288 409.351 229.776V224.664ZM412.327 226.176H409.351V219.744C409.479 219.696 409.663 219.656 409.903 219.624C410.159 219.576 410.431 219.552 410.719 219.552C411.279 219.552 411.687 219.656 411.943 219.864C412.199 220.056 412.327 220.416 412.327 220.944V226.176ZM415.704 224.664L418.656 224.808V230.952C418.528 231 418.344 231.04 418.104 231.072C417.864 231.12 417.6 231.144 417.312 231.144C416.768 231.144 416.36 231.048 416.088 230.856C415.832 230.648 415.704 230.288 415.704 229.776V224.664ZM418.656 226.32L415.704 226.176V215.4C415.816 215.368 415.992 215.328 416.232 215.28C416.488 215.232 416.752 215.208 417.024 215.208C417.6 215.208 418.016 215.312 418.272 215.52C418.528 215.712 418.656 216.064 418.656 216.576V226.32ZM421.744 216.264C421.744 215.8 421.904 215.408 422.224 215.088C422.56 214.768 422.976 214.608 423.472 214.608C423.984 214.608 424.392 214.768 424.696 215.088C425.016 215.408 425.176 215.8 425.176 216.264C425.176 216.712 425.016 217.104 424.696 217.44C424.392 217.76 423.984 217.92 423.472 217.92C422.976 217.92 422.56 217.76 422.224 217.44C421.904 217.104 421.744 216.712 421.744 216.264ZM421.984 224.664H424.96V230.952C424.832 231 424.648 231.04 424.408 231.072C424.168 231.12 423.904 231.144 423.616 231.144C423.072 231.144 422.664 231.048 422.392 230.856C422.12 230.648 421.984 230.288 421.984 229.776V224.664ZM424.96 226.176H421.984V219.744C422.112 219.696 422.296 219.656 422.536 219.624C422.792 219.576 423.064 219.552 423.352 219.552C423.912 219.552 424.32 219.656 424.576 219.864C424.832 220.056 424.96 220.416 424.96 220.944V226.176ZM428.169 224.664H431.121V227.496C431.121 228.024 431.273 228.4 431.577 228.624C431.897 228.848 432.345 228.96 432.921 228.96C433.177 228.96 433.449 228.928 433.737 228.864C434.041 228.8 434.297 228.72 434.505 228.624C434.617 228.752 434.721 228.904 434.817 229.08C434.913 229.256 434.961 229.472 434.961 229.728C434.961 230.192 434.737 230.576 434.289 230.88C433.857 231.184 433.177 231.336 432.249 231.336C430.985 231.336 429.985 231.056 429.249 230.496C428.529 229.92 428.169 228.992 428.169 227.712V224.664ZM429.969 222.216V219.888H434.673C434.737 220 434.801 220.16 434.865 220.368C434.945 220.576 434.985 220.792 434.985 221.016C434.985 221.416 434.889 221.72 434.697 221.928C434.505 222.12 434.257 222.216 433.953 222.216H429.969ZM431.121 225.312H428.169V216.672C428.297 216.624 428.481 216.576 428.721 216.528C428.977 216.48 429.241 216.456 429.513 216.456C430.073 216.456 430.481 216.56 430.737 216.768C430.993 216.96 431.121 217.312 431.121 217.824V225.312ZM439.443 228.288C439.187 227.76 438.891 227.104 438.555 226.32C438.235 225.52 437.899 224.6 437.547 223.56C437.195 222.504 436.835 221.344 436.467 220.08C436.643 219.888 436.867 219.728 437.139 219.6C437.411 219.472 437.707 219.408 438.027 219.408C438.443 219.408 438.779 219.504 439.035 219.696C439.307 219.872 439.515 220.2 439.659 220.68C440.075 221.928 440.491 223.16 440.907 224.376C441.339 225.592 441.795 226.832 442.275 228.096H442.371C442.675 227.392 442.979 226.568 443.283 225.624C443.587 224.664 443.875 223.672 444.147 222.648C444.435 221.624 444.675 220.648 444.867 219.72C445.059 219.624 445.259 219.552 445.467 219.504C445.675 219.44 445.899 219.408 446.139 219.408C446.539 219.408 446.883 219.504 447.171 219.696C447.475 219.872 447.627 220.176 447.627 220.608C447.627 220.992 447.555 221.504 447.411 222.144C447.283 222.768 447.099 223.464 446.859 224.232C446.619 225 446.339 225.8 446.019 226.632C445.715 227.464 445.387 228.272 445.035 229.056C444.699 229.824 444.355 230.52 444.003 231.144C443.187 232.6 442.435 233.696 441.747 234.432C441.059 235.184 440.395 235.56 439.755 235.56C439.259 235.56 438.851 235.408 438.531 235.104C438.227 234.816 438.043 234.456 437.979 234.024C438.331 233.72 438.699 233.352 439.083 232.92C439.483 232.504 439.867 232.056 440.235 231.576C440.603 231.096 440.915 230.624 441.171 230.16C440.899 230.08 440.627 229.92 440.355 229.68C440.083 229.424 439.779 228.96 439.443 228.288ZM459.213 228.888C460.141 228.888 460.829 228.704 461.277 228.336C461.725 227.952 461.949 227.48 461.949 226.92C461.949 226.424 461.773 226.024 461.421 225.72C461.085 225.4 460.565 225.136 459.861 224.928L458.301 224.448C457.501 224.176 456.797 223.872 456.189 223.536C455.597 223.2 455.133 222.768 454.797 222.24C454.477 221.696 454.317 221.032 454.317 220.248C454.317 218.952 454.797 217.928 455.757 217.176C456.733 216.424 458.061 216.048 459.741 216.048C460.637 216.048 461.429 216.144 462.117 216.336C462.821 216.512 463.373 216.76 463.773 217.08C464.189 217.4 464.397 217.776 464.397 218.208C464.397 218.512 464.317 218.784 464.157 219.024C464.013 219.248 463.829 219.432 463.605 219.576C463.237 219.304 462.733 219.072 462.093 218.88C461.453 218.672 460.757 218.568 460.005 218.568C459.173 218.568 458.533 218.72 458.085 219.024C457.637 219.328 457.413 219.736 457.413 220.248C457.413 220.664 457.565 221 457.869 221.256C458.189 221.512 458.669 221.736 459.309 221.928L460.701 222.336C462.077 222.752 463.149 223.32 463.917 224.04C464.685 224.744 465.069 225.712 465.069 226.944C465.069 228.256 464.565 229.32 463.557 230.136C462.565 230.952 461.141 231.36 459.285 231.36C458.309 231.36 457.445 231.256 456.693 231.048C455.941 230.84 455.341 230.552 454.893 230.184C454.461 229.816 454.245 229.4 454.245 228.936C454.245 228.584 454.357 228.28 454.581 228.024C454.805 227.768 455.045 227.576 455.301 227.448C455.717 227.8 456.253 228.128 456.909 228.432C457.565 228.736 458.333 228.888 459.213 228.888ZM467.45 226.656V224.76H470.402V226.608C470.402 227.456 470.618 228.064 471.05 228.432C471.498 228.8 472.114 228.984 472.898 228.984C473.41 228.984 473.842 228.936 474.194 228.84C474.546 228.744 474.81 228.64 474.986 228.528V224.76H477.938V228.768C477.938 229.136 477.874 229.448 477.746 229.704C477.634 229.944 477.41 230.168 477.074 230.376C476.61 230.648 476.018 230.872 475.298 231.048C474.594 231.24 473.786 231.336 472.874 231.336C471.77 231.336 470.81 231.176 469.994 230.856C469.178 230.536 468.546 230.032 468.098 229.344C467.666 228.64 467.45 227.744 467.45 226.656ZM477.938 225.912H474.986V219.672C475.114 219.64 475.298 219.608 475.538 219.576C475.794 219.528 476.058 219.504 476.33 219.504C476.89 219.504 477.298 219.6 477.554 219.792C477.81 219.984 477.938 220.344 477.938 220.872V225.912ZM470.402 225.912H467.45V219.672C467.578 219.64 467.762 219.608 468.002 219.576C468.242 219.528 468.506 219.504 468.794 219.504C469.354 219.504 469.762 219.6 470.018 219.792C470.274 219.984 470.402 220.344 470.402 220.872V225.912ZM486.852 221.688C485.892 221.688 485.084 222 484.428 222.624C483.788 223.248 483.468 224.16 483.468 225.36C483.468 226.544 483.78 227.44 484.404 228.048C485.028 228.656 485.836 228.96 486.828 228.96C487.42 228.96 487.916 228.888 488.316 228.744C488.732 228.584 489.092 228.416 489.396 228.24C489.636 228.384 489.82 228.56 489.948 228.768C490.092 228.96 490.164 229.2 490.164 229.488C490.164 230.032 489.836 230.48 489.18 230.832C488.524 231.168 487.66 231.336 486.588 231.336C485.372 231.336 484.3 231.12 483.372 230.688C482.46 230.24 481.74 229.568 481.212 228.672C480.7 227.776 480.444 226.672 480.444 225.36C480.444 224 480.716 222.872 481.26 221.976C481.82 221.08 482.556 220.416 483.468 219.984C484.396 219.536 485.412 219.312 486.516 219.312C487.572 219.312 488.42 219.496 489.06 219.864C489.7 220.232 490.02 220.688 490.02 221.232C490.02 221.472 489.956 221.696 489.828 221.904C489.7 222.112 489.548 222.28 489.372 222.408C489.052 222.216 488.692 222.048 488.292 221.904C487.892 221.76 487.412 221.688 486.852 221.688ZM498.149 221.688C497.189 221.688 496.381 222 495.725 222.624C495.085 223.248 494.765 224.16 494.765 225.36C494.765 226.544 495.077 227.44 495.701 228.048C496.325 228.656 497.133 228.96 498.125 228.96C498.717 228.96 499.213 228.888 499.613 228.744C500.029 228.584 500.389 228.416 500.693 228.24C500.933 228.384 501.117 228.56 501.245 228.768C501.389 228.96 501.461 229.2 501.461 229.488C501.461 230.032 501.133 230.48 500.477 230.832C499.821 231.168 498.957 231.336 497.885 231.336C496.669 231.336 495.597 231.12 494.669 230.688C493.757 230.24 493.037 229.568 492.509 228.672C491.997 227.776 491.741 226.672 491.741 225.36C491.741 224 492.013 222.872 492.557 221.976C493.117 221.08 493.853 220.416 494.765 219.984C495.693 219.536 496.709 219.312 497.813 219.312C498.869 219.312 499.717 219.496 500.357 219.864C500.997 220.232 501.317 220.688 501.317 221.232C501.317 221.472 501.253 221.696 501.125 221.904C500.997 222.112 500.845 222.28 500.669 222.408C500.349 222.216 499.989 222.048 499.589 221.904C499.189 221.76 498.709 221.688 498.149 221.688ZM504.91 226.824L504.79 224.76L511.222 223.8C511.174 223.192 510.942 222.664 510.526 222.216C510.11 221.768 509.502 221.544 508.702 221.544C507.886 221.544 507.206 221.832 506.662 222.408C506.118 222.968 505.838 223.776 505.822 224.832L505.894 226.08C506.038 227.104 506.43 227.856 507.07 228.336C507.726 228.816 508.55 229.056 509.542 229.056C510.214 229.056 510.838 228.96 511.414 228.768C511.99 228.56 512.446 228.336 512.782 228.096C513.006 228.24 513.182 228.424 513.31 228.648C513.454 228.856 513.526 229.088 513.526 229.344C513.526 229.76 513.342 230.12 512.974 230.424C512.606 230.712 512.11 230.936 511.486 231.096C510.862 231.256 510.15 231.336 509.35 231.336C508.118 231.336 507.022 231.112 506.062 230.664C505.118 230.2 504.374 229.512 503.83 228.6C503.302 227.688 503.038 226.552 503.038 225.192C503.038 224.216 503.19 223.36 503.494 222.624C503.798 221.888 504.206 221.28 504.718 220.8C505.246 220.304 505.854 219.936 506.542 219.696C507.23 219.44 507.95 219.312 508.702 219.312C509.758 219.312 510.678 219.528 511.462 219.96C512.262 220.376 512.886 220.96 513.334 221.712C513.798 222.464 514.03 223.328 514.03 224.304C514.03 224.752 513.91 225.088 513.67 225.312C513.446 225.52 513.126 225.648 512.71 225.696L504.91 226.824ZM525.265 227.784C525.265 228.904 524.849 229.784 524.017 230.424C523.185 231.048 521.977 231.36 520.393 231.36C519.113 231.36 518.065 231.168 517.249 230.784C516.433 230.4 516.025 229.888 516.025 229.248C516.025 228.976 516.089 228.728 516.217 228.504C516.345 228.264 516.513 228.08 516.721 227.952C517.169 228.24 517.689 228.496 518.281 228.72C518.873 228.944 519.545 229.056 520.297 229.056C521.657 229.056 522.337 228.64 522.337 227.808C522.337 227.456 522.217 227.176 521.977 226.968C521.737 226.744 521.369 226.584 520.873 226.488L519.505 226.128C518.337 225.872 517.465 225.472 516.889 224.928C516.329 224.384 516.049 223.656 516.049 222.744C516.049 221.736 516.465 220.912 517.297 220.272C518.129 219.616 519.281 219.288 520.753 219.288C521.521 219.288 522.209 219.368 522.817 219.528C523.425 219.672 523.897 219.888 524.233 220.176C524.585 220.464 524.761 220.808 524.761 221.208C524.761 221.48 524.697 221.728 524.569 221.952C524.457 222.16 524.305 222.32 524.113 222.432C523.921 222.32 523.657 222.2 523.321 222.072C523.001 221.928 522.633 221.816 522.217 221.736C521.801 221.64 521.385 221.592 520.969 221.592C520.345 221.592 519.849 221.696 519.481 221.904C519.129 222.096 518.953 222.376 518.953 222.744C518.953 223.016 519.057 223.248 519.265 223.44C519.473 223.632 519.825 223.784 520.321 223.896L521.545 224.184C522.841 224.488 523.785 224.936 524.377 225.528C524.969 226.104 525.265 226.856 525.265 227.784ZM536.515 227.784C536.515 228.904 536.099 229.784 535.267 230.424C534.435 231.048 533.227 231.36 531.643 231.36C530.363 231.36 529.315 231.168 528.499 230.784C527.683 230.4 527.275 229.888 527.275 229.248C527.275 228.976 527.339 228.728 527.467 228.504C527.595 228.264 527.763 228.08 527.971 227.952C528.419 228.24 528.939 228.496 529.531 228.72C530.123 228.944 530.795 229.056 531.547 229.056C532.907 229.056 533.587 228.64 533.587 227.808C533.587 227.456 533.467 227.176 533.227 226.968C532.987 226.744 532.619 226.584 532.123 226.488L530.755 226.128C529.587 225.872 528.715 225.472 528.139 224.928C527.579 224.384 527.299 223.656 527.299 222.744C527.299 221.736 527.715 220.912 528.547 220.272C529.379 219.616 530.531 219.288 532.003 219.288C532.771 219.288 533.459 219.368 534.067 219.528C534.675 219.672 535.147 219.888 535.483 220.176C535.835 220.464 536.011 220.808 536.011 221.208C536.011 221.48 535.947 221.728 535.819 221.952C535.707 222.16 535.555 222.32 535.363 222.432C535.171 222.32 534.907 222.2 534.571 222.072C534.251 221.928 533.883 221.816 533.467 221.736C533.051 221.64 532.635 221.592 532.219 221.592C531.595 221.592 531.099 221.696 530.731 221.904C530.379 222.096 530.203 222.376 530.203 222.744C530.203 223.016 530.307 223.248 530.515 223.44C530.723 223.632 531.075 223.784 531.571 223.896L532.795 224.184C534.091 224.488 535.035 224.936 535.627 225.528C536.219 226.104 536.515 226.856 536.515 227.784ZM540.395 226.824L540.275 224.76L546.707 223.8C546.659 223.192 546.427 222.664 546.011 222.216C545.595 221.768 544.987 221.544 544.187 221.544C543.371 221.544 542.691 221.832 542.147 222.408C541.603 222.968 541.323 223.776 541.307 224.832L541.379 226.08C541.523 227.104 541.915 227.856 542.555 228.336C543.211 228.816 544.035 229.056 545.027 229.056C545.699 229.056 546.323 228.96 546.899 228.768C547.475 228.56 547.931 228.336 548.267 228.096C548.491 228.24 548.667 228.424 548.795 228.648C548.939 228.856 549.011 229.088 549.011 229.344C549.011 229.76 548.827 230.12 548.459 230.424C548.091 230.712 547.595 230.936 546.971 231.096C546.347 231.256 545.635 231.336 544.835 231.336C543.603 231.336 542.507 231.112 541.547 230.664C540.603 230.2 539.859 229.512 539.315 228.6C538.787 227.688 538.523 226.552 538.523 225.192C538.523 224.216 538.675 223.36 538.979 222.624C539.283 221.888 539.691 221.28 540.203 220.8C540.731 220.304 541.339 219.936 542.027 219.696C542.715 219.44 543.435 219.312 544.187 219.312C545.243 219.312 546.163 219.528 546.947 219.96C547.747 220.376 548.371 220.96 548.819 221.712C549.283 222.464 549.515 223.328 549.515 224.304C549.515 224.752 549.395 225.088 549.155 225.312C548.931 225.52 548.611 225.648 548.195 225.696L540.395 226.824ZM560.75 227.784C560.75 228.904 560.334 229.784 559.502 230.424C558.67 231.048 557.462 231.36 555.878 231.36C554.598 231.36 553.55 231.168 552.734 230.784C551.918 230.4 551.51 229.888 551.51 229.248C551.51 228.976 551.574 228.728 551.702 228.504C551.83 228.264 551.998 228.08 552.206 227.952C552.654 228.24 553.174 228.496 553.766 228.72C554.358 228.944 555.03 229.056 555.782 229.056C557.142 229.056 557.822 228.64 557.822 227.808C557.822 227.456 557.702 227.176 557.462 226.968C557.222 226.744 556.854 226.584 556.358 226.488L554.99 226.128C553.822 225.872 552.95 225.472 552.374 224.928C551.814 224.384 551.534 223.656 551.534 222.744C551.534 221.736 551.95 220.912 552.782 220.272C553.614 219.616 554.766 219.288 556.238 219.288C557.006 219.288 557.694 219.368 558.302 219.528C558.91 219.672 559.382 219.888 559.718 220.176C560.07 220.464 560.246 220.808 560.246 221.208C560.246 221.48 560.182 221.728 560.054 221.952C559.942 222.16 559.79 222.32 559.598 222.432C559.406 222.32 559.142 222.2 558.806 222.072C558.486 221.928 558.118 221.816 557.702 221.736C557.286 221.64 556.87 221.592 556.454 221.592C555.83 221.592 555.334 221.696 554.966 221.904C554.614 222.096 554.438 222.376 554.438 222.744C554.438 223.016 554.542 223.248 554.75 223.44C554.958 223.632 555.31 223.784 555.806 223.896L557.03 224.184C558.326 224.488 559.27 224.936 559.862 225.528C560.454 226.104 560.75 226.856 560.75 227.784Z" fill="#4B4B4B"/>
<circle cx="825" cy="69.5" r="63.5" fill="white"/>
<path fill-rule="evenodd" clip-rule="evenodd" d="M809.468 81.7968C809.113 82.9924 809.09 84.4224 809.62 86.1304C809.8 86.1133 809.982 86.1047 810.167 86.1047C813.342 86.1047 815.917 88.6981 815.917 91.8972C815.917 95.0963 813.342 97.6898 810.167 97.6898C806.991 97.6898 804.417 95.0963 804.417 91.8972C804.417 90.2842 805.071 88.825 806.127 87.7747C805.245 85.2531 805.151 82.8742 805.792 80.7076C805.807 80.6596 805.821 80.6119 805.836 80.5644C797.789 83.4434 791 88.0302 791 94.3105V106.833H860V94.3105C860 88.0865 853.332 83.5258 845.38 80.6424C845.771 81.7546 845.994 82.9387 846.036 84.188H846.471C846.912 84.188 847.34 84.3402 847.682 84.6193L851.628 87.8374C852.074 88.2013 852.333 88.7468 852.333 89.3228V97.6898C852.333 98.7484 851.475 99.6065 850.417 99.6065H846.471V95.7731H848.5V90.2328L845.788 88.0214H845.634C845.616 88.0967 845.598 88.1724 845.579 88.2483L844.664 88.0214H841.629L838.917 90.2328V95.7731H840.946V99.6065H837C835.941 99.6065 835.083 98.7484 835.083 97.6898V89.3228C835.083 88.7468 835.342 88.2013 835.789 87.8374L839.735 84.6193C840.077 84.3402 840.505 84.188 840.946 84.188H842.199C842.152 83.2059 841.946 82.3275 841.622 81.5411C841.234 80.5996 840.656 79.7368 839.902 78.9569C839.651 78.8921 839.4 78.8288 839.149 78.7673C838.186 78.5304 837.197 79.0149 836.76 79.9116H828.97C827.267 79.9119 826.4 79.9119 825.548 79.9118C824.664 79.9118 823.796 79.9118 822.029 79.9121L814.24 79.9116C813.803 79.0149 812.814 78.5304 811.851 78.7673C811.636 78.82 811.421 78.8739 811.206 78.9291C810.357 79.8037 809.774 80.7641 809.468 81.7968ZM812.083 91.8972C812.083 93.006 811.199 93.8565 810.167 93.8565C809.135 93.8565 808.25 93.006 808.25 91.8972C808.25 90.7885 809.135 89.938 810.167 89.938C811.199 89.938 812.083 90.7885 812.083 91.8972Z" fill="#750077"/>
<path d="M802.5 63.1073C802.5 71.9761 818.51 74.25 818.51 74.25C818.51 74.25 807.544 57.1949 813.027 54.2387C818.51 51.2824 833.424 45.5974 834.521 47.644C844.609 62.1978 831.67 74.25 831.67 74.25C831.67 74.25 846.583 72.8855 846.583 63.1073C846.583 53.329 839.565 41.5042 839.565 41.5042C839.565 41.5042 834.521 34 824.651 34C814.782 34 811.273 41.5042 811.273 41.5042C811.273 41.5042 802.5 54.2387 802.5 63.1073Z" fill="#750077"/>
<path d="M802.62 180.544H794.684V160.64L787.388 163.584C786.79 163.285 786.236 162.837 785.724 162.24C785.254 161.643 785.02 160.853 785.02 159.872C785.02 157.995 786.15 156.651 788.411 155.84L796.54 152.64H798.332C799.654 152.64 800.7 153.024 801.468 153.792C802.236 154.56 802.62 155.627 802.62 156.992V180.544ZM794.684 175.104H802.62V192C802.278 192.128 801.788 192.235 801.148 192.32C800.508 192.448 799.804 192.512 799.036 192.512C797.542 192.512 796.433 192.235 795.708 191.68C795.025 191.125 794.684 190.165 794.684 188.8V175.104ZM835.261 172.544C835.261 169.344 834.898 166.72 834.173 164.672C833.49 162.624 832.53 161.109 831.293 160.128C830.098 159.147 828.69 158.656 827.069 158.656C825.533 158.656 824.146 159.168 822.909 160.192C821.672 161.173 820.712 162.688 820.029 164.736C819.346 166.784 819.005 169.387 819.005 172.544C819.005 177.152 819.709 180.629 821.117 182.976C822.525 185.323 824.509 186.496 827.069 186.496C829.672 186.496 831.677 185.323 833.085 182.976C834.536 180.629 835.261 177.152 835.261 172.544ZM827.133 192.896C823.933 192.896 821.117 192.149 818.685 190.656C816.296 189.163 814.418 186.923 813.053 183.936C811.688 180.907 811.005 177.109 811.005 172.544C811.005 167.893 811.73 164.075 813.181 161.088C814.632 158.101 816.573 155.883 819.005 154.432C821.437 152.981 824.146 152.256 827.133 152.256C830.077 152.256 832.765 152.981 835.197 154.432C837.672 155.883 839.634 158.123 841.085 161.152C842.536 164.139 843.261 167.936 843.261 172.544C843.261 177.067 842.578 180.843 841.213 183.872C839.848 186.859 837.949 189.12 835.517 190.656C833.085 192.149 830.29 192.896 827.133 192.896ZM862.613 183.18H848.033C847.913 182.964 847.805 182.724 847.709 182.46C847.637 182.172 847.601 181.848 847.601 181.488C847.601 180.84 847.757 180.372 848.069 180.084C848.381 179.772 848.789 179.616 849.293 179.616H863.909C864.005 179.808 864.101 180.06 864.197 180.372C864.293 180.684 864.341 181.02 864.341 181.38C864.341 182.004 864.185 182.46 863.873 182.748C863.561 183.036 863.141 183.18 862.613 183.18ZM858.041 174.864V189.804C857.825 189.852 857.549 189.912 857.213 189.984C856.877 190.032 856.529 190.056 856.169 190.056C855.449 190.056 854.909 189.924 854.549 189.66C854.189 189.396 854.009 188.868 854.009 188.076V173.172C854.225 173.124 854.501 173.064 854.837 172.992C855.173 172.92 855.533 172.884 855.917 172.884C856.613 172.884 857.141 173.028 857.501 173.316C857.861 173.58 858.041 174.096 858.041 174.864Z" fill="#750077"/>
<path d="M728.256 226.104H725.568C725.136 225.48 724.672 224.792 724.176 224.04C723.696 223.272 723.216 222.488 722.736 221.688C722.256 220.888 721.8 220.112 721.368 219.36C720.952 218.592 720.6 217.896 720.312 217.272C720.456 217.048 720.656 216.832 720.912 216.624C721.184 216.416 721.52 216.312 721.92 216.312C722.368 216.312 722.728 216.416 723 216.624C723.288 216.832 723.56 217.192 723.816 217.704C724.04 218.104 724.28 218.544 724.536 219.024C724.808 219.504 725.08 220 725.352 220.512C725.624 221.008 725.888 221.496 726.144 221.976C726.4 222.44 726.632 222.856 726.84 223.224H726.96C727.392 222.408 727.784 221.656 728.136 220.968C728.504 220.264 728.856 219.56 729.192 218.856C729.528 218.152 729.872 217.408 730.224 216.624C730.416 216.528 730.632 216.456 730.872 216.408C731.112 216.344 731.344 216.312 731.568 216.312C731.984 216.312 732.328 216.424 732.6 216.648C732.872 216.872 733.008 217.192 733.008 217.608C733.008 217.784 732.912 218.088 732.72 218.52C732.544 218.936 732.264 219.488 731.88 220.176C731.496 220.864 731 221.704 730.392 222.696C729.8 223.672 729.088 224.808 728.256 226.104ZM725.424 224.928H728.4V230.952C728.272 231 728.072 231.04 727.8 231.072C727.544 231.12 727.288 231.144 727.032 231.144C726.44 231.144 726.024 231.04 725.784 230.832C725.544 230.624 725.424 230.264 725.424 229.752V224.928ZM735.16 226.824L735.04 224.76L741.472 223.8C741.424 223.192 741.192 222.664 740.776 222.216C740.36 221.768 739.752 221.544 738.952 221.544C738.136 221.544 737.456 221.832 736.912 222.408C736.368 222.968 736.088 223.776 736.072 224.832L736.144 226.08C736.288 227.104 736.68 227.856 737.32 228.336C737.976 228.816 738.8 229.056 739.792 229.056C740.464 229.056 741.088 228.96 741.664 228.768C742.24 228.56 742.696 228.336 743.032 228.096C743.256 228.24 743.432 228.424 743.56 228.648C743.704 228.856 743.776 229.088 743.776 229.344C743.776 229.76 743.592 230.12 743.224 230.424C742.856 230.712 742.36 230.936 741.736 231.096C741.112 231.256 740.4 231.336 739.6 231.336C738.368 231.336 737.272 231.112 736.312 230.664C735.368 230.2 734.624 229.512 734.08 228.6C733.552 227.688 733.288 226.552 733.288 225.192C733.288 224.216 733.44 223.36 733.744 222.624C734.048 221.888 734.456 221.28 734.968 220.8C735.496 220.304 736.104 219.936 736.792 219.696C737.48 219.44 738.2 219.312 738.952 219.312C740.008 219.312 740.928 219.528 741.712 219.96C742.512 220.376 743.136 220.96 743.584 221.712C744.048 222.464 744.28 223.328 744.28 224.304C744.28 224.752 744.16 225.088 743.92 225.312C743.696 225.52 743.376 225.648 742.96 225.696L735.16 226.824ZM751.125 229.104C751.605 229.104 752.037 229.056 752.421 228.96C752.805 228.864 753.085 228.76 753.261 228.648V225.912L750.885 226.152C750.229 226.2 749.725 226.344 749.373 226.584C749.037 226.808 748.869 227.144 748.869 227.592C748.869 228.056 749.053 228.424 749.421 228.696C749.789 228.968 750.357 229.104 751.125 229.104ZM751.005 219.312C752.573 219.312 753.821 219.648 754.749 220.32C755.677 220.976 756.141 222.016 756.141 223.44V228.96C756.141 229.344 756.045 229.648 755.853 229.872C755.677 230.096 755.445 230.296 755.157 230.472C754.709 230.728 754.141 230.936 753.453 231.096C752.765 231.272 751.989 231.36 751.125 231.36C749.525 231.36 748.269 231.056 747.357 230.448C746.445 229.824 745.989 228.904 745.989 227.688C745.989 226.616 746.325 225.8 746.997 225.24C747.685 224.664 748.677 224.312 749.973 224.184L753.237 223.848V223.416C753.237 222.776 753.013 222.312 752.565 222.024C752.133 221.736 751.517 221.592 750.717 221.592C750.093 221.592 749.485 221.672 748.893 221.832C748.301 221.992 747.773 222.184 747.309 222.408C747.149 222.28 747.005 222.104 746.877 221.88C746.749 221.656 746.685 221.424 746.685 221.184C746.685 220.608 747.005 220.184 747.645 219.912C748.093 219.704 748.613 219.552 749.205 219.456C749.813 219.36 750.413 219.312 751.005 219.312ZM762.129 222.36V225.648H759.177V222.12C759.177 221.72 759.273 221.384 759.465 221.112C759.657 220.824 759.929 220.56 760.281 220.32C760.761 220.032 761.369 219.792 762.105 219.6C762.841 219.408 763.633 219.312 764.481 219.312C765.985 219.312 766.737 219.776 766.737 220.704C766.737 220.928 766.705 221.136 766.641 221.328C766.577 221.504 766.497 221.664 766.401 221.808C766.241 221.776 766.041 221.752 765.801 221.736C765.561 221.704 765.305 221.688 765.033 221.688C764.457 221.688 763.913 221.752 763.401 221.88C762.905 221.992 762.481 222.152 762.129 222.36ZM759.177 224.664L762.129 224.808V230.952C762.001 231 761.817 231.04 761.577 231.072C761.337 231.12 761.073 231.144 760.785 231.144C760.241 231.144 759.833 231.048 759.561 230.856C759.305 230.648 759.177 230.288 759.177 229.776V224.664ZM777.476 227.784C777.476 228.904 777.06 229.784 776.228 230.424C775.396 231.048 774.188 231.36 772.604 231.36C771.324 231.36 770.276 231.168 769.46 230.784C768.644 230.4 768.236 229.888 768.236 229.248C768.236 228.976 768.3 228.728 768.428 228.504C768.556 228.264 768.724 228.08 768.932 227.952C769.38 228.24 769.9 228.496 770.492 228.72C771.084 228.944 771.756 229.056 772.508 229.056C773.868 229.056 774.548 228.64 774.548 227.808C774.548 227.456 774.428 227.176 774.188 226.968C773.948 226.744 773.58 226.584 773.084 226.488L771.716 226.128C770.548 225.872 769.676 225.472 769.1 224.928C768.54 224.384 768.26 223.656 768.26 222.744C768.26 221.736 768.676 220.912 769.508 220.272C770.34 219.616 771.492 219.288 772.964 219.288C773.732 219.288 774.42 219.368 775.028 219.528C775.636 219.672 776.108 219.888 776.444 220.176C776.796 220.464 776.972 220.808 776.972 221.208C776.972 221.48 776.908 221.728 776.78 221.952C776.668 222.16 776.516 222.32 776.324 222.432C776.132 222.32 775.868 222.2 775.532 222.072C775.212 221.928 774.844 221.816 774.428 221.736C774.012 221.64 773.596 221.592 773.18 221.592C772.556 221.592 772.06 221.696 771.692 221.904C771.34 222.096 771.164 222.376 771.164 222.744C771.164 223.016 771.268 223.248 771.476 223.44C771.684 223.632 772.036 223.784 772.532 223.896L773.756 224.184C775.052 224.488 775.996 224.936 776.588 225.528C777.18 226.104 777.476 226.856 777.476 227.784ZM795.883 225.312C795.883 226.544 795.643 227.616 795.163 228.528C794.683 229.424 794.003 230.12 793.123 230.616C792.259 231.096 791.235 231.336 790.051 231.336C788.867 231.336 787.835 231.096 786.955 230.616C786.075 230.12 785.387 229.424 784.891 228.528C784.411 227.632 784.171 226.56 784.171 225.312C784.171 224.08 784.419 223.016 784.915 222.12C785.411 221.224 786.099 220.536 786.979 220.056C787.859 219.56 788.883 219.312 790.051 219.312C791.219 219.312 792.235 219.56 793.099 220.056C793.979 220.536 794.659 221.232 795.139 222.144C795.635 223.04 795.883 224.096 795.883 225.312ZM790.051 221.664C789.171 221.664 788.475 221.984 787.963 222.624C787.467 223.264 787.219 224.16 787.219 225.312C787.219 226.496 787.467 227.408 787.963 228.048C788.459 228.672 789.155 228.984 790.051 228.984C790.931 228.984 791.619 228.664 792.115 228.024C792.611 227.384 792.859 226.48 792.859 225.312C792.859 224.176 792.611 223.288 792.115 222.648C791.619 221.992 790.931 221.664 790.051 221.664ZM800.835 222.696V220.392H805.659C805.723 220.504 805.787 220.664 805.851 220.872C805.931 221.064 805.971 221.288 805.971 221.544C805.971 221.944 805.875 222.24 805.683 222.432C805.507 222.608 805.251 222.696 804.915 222.696H800.835ZM801.291 219.24V222.336H798.459V219.12C798.459 218.112 798.659 217.296 799.059 216.672C799.475 216.032 800.043 215.568 800.763 215.28C801.499 214.976 802.331 214.824 803.259 214.824C804.299 214.824 805.091 214.96 805.635 215.232C806.179 215.504 806.451 215.912 806.451 216.456C806.451 216.696 806.395 216.92 806.283 217.128C806.187 217.32 806.067 217.48 805.923 217.608C805.619 217.48 805.275 217.376 804.891 217.296C804.523 217.216 804.131 217.176 803.715 217.176C802.867 217.176 802.251 217.336 801.867 217.656C801.483 217.976 801.291 218.504 801.291 219.24ZM798.459 221.496H801.411V230.952C801.283 231 801.099 231.04 800.859 231.072C800.619 231.12 800.355 231.144 800.067 231.144C799.523 231.144 799.115 231.048 798.843 230.856C798.587 230.648 798.459 230.288 798.459 229.776V221.496ZM813.465 221.352H816.441V230.832C816.329 230.864 816.145 230.904 815.889 230.952C815.633 231 815.369 231.024 815.097 231.024C814.601 231.024 814.201 230.88 813.897 230.592C813.609 230.288 813.465 229.896 813.465 229.416V221.352ZM816.441 226.056L813.465 226.032V218.04C813.465 217.544 813.609 217.152 813.897 216.864C814.201 216.576 814.601 216.432 815.097 216.432C815.369 216.432 815.633 216.456 815.889 216.504C816.145 216.552 816.329 216.592 816.441 216.624V226.056ZM815.097 224.76V222.36H822.321C822.401 222.472 822.473 222.632 822.537 222.84C822.617 223.048 822.657 223.272 822.657 223.512C822.657 223.928 822.561 224.24 822.369 224.448C822.177 224.656 821.913 224.76 821.577 224.76H815.097ZM815.097 231.024V228.6H823.161C823.225 228.712 823.289 228.872 823.353 229.08C823.433 229.288 823.473 229.52 823.473 229.776C823.473 230.192 823.377 230.504 823.185 230.712C822.993 230.92 822.729 231.024 822.393 231.024H815.097ZM815.097 218.88V216.432H823.041C823.121 216.544 823.193 216.704 823.257 216.912C823.321 217.12 823.353 217.344 823.353 217.584C823.353 218 823.257 218.32 823.065 218.544C822.889 218.768 822.625 218.88 822.273 218.88H815.097ZM829.76 224.16L830.288 224.064C830.896 223.28 831.472 222.528 832.016 221.808C832.576 221.072 833.152 220.296 833.744 219.48C833.808 219.464 833.864 219.456 833.912 219.456C833.96 219.456 834.008 219.456 834.056 219.456C834.6 219.456 835.024 219.576 835.328 219.816C835.648 220.056 835.808 220.36 835.808 220.728C835.808 221.016 835.736 221.28 835.592 221.52C835.464 221.76 835.232 222.08 834.896 222.48C834.416 223.04 833.928 223.608 833.432 224.184C832.952 224.744 832.48 225.304 832.016 225.864L831.104 226.368C830.544 227.152 829.968 227.952 829.376 228.768C828.8 229.568 828.232 230.36 827.672 231.144C827.608 231.144 827.536 231.144 827.456 231.144C827.392 231.16 827.328 231.168 827.264 231.168C826.688 231.168 826.248 231.048 825.944 230.808C825.64 230.552 825.488 230.248 825.488 229.896C825.488 229.64 825.544 229.408 825.656 229.2C825.768 228.976 825.992 228.672 826.328 228.288C826.872 227.6 827.432 226.92 828.008 226.248C828.6 225.56 829.184 224.864 829.76 224.16ZM831.512 224.376L832.184 224.76C832.808 225.592 833.44 226.424 834.08 227.256C834.736 228.088 835.376 228.92 836 229.752C835.952 230.2 835.784 230.552 835.496 230.808C835.208 231.064 834.856 231.192 834.44 231.192C834.024 231.192 833.68 231.08 833.408 230.856C833.152 230.616 832.88 230.304 832.592 229.92C832.16 229.312 831.712 228.68 831.248 228.024C830.8 227.368 830.36 226.744 829.928 226.152L829.352 225.696C828.664 224.896 828 224.112 827.36 223.344C826.736 222.56 826.104 221.776 825.464 220.992C825.56 220.528 825.744 220.16 826.016 219.888C826.288 219.6 826.624 219.456 827.024 219.456C827.424 219.456 827.728 219.56 827.936 219.768C828.16 219.96 828.4 220.224 828.656 220.56C829.104 221.152 829.56 221.776 830.024 222.432C830.504 223.088 831 223.736 831.512 224.376ZM843.583 231.336C842.943 231.336 842.359 231.248 841.831 231.072C841.319 230.912 840.895 230.728 840.559 230.52V227.976C840.863 228.232 841.223 228.464 841.639 228.672C842.071 228.864 842.575 228.96 843.151 228.96C844.111 228.96 844.871 228.664 845.431 228.072C845.991 227.464 846.271 226.528 846.271 225.264C846.271 224.384 846.135 223.688 845.863 223.176C845.607 222.648 845.247 222.264 844.783 222.024C844.319 221.784 843.799 221.664 843.223 221.664C842.775 221.664 842.383 221.72 842.047 221.832C841.711 221.928 841.423 222.048 841.183 222.192V229.776H838.231V221.904C838.231 221.536 838.303 221.232 838.447 220.992C838.591 220.752 838.831 220.528 839.167 220.32C839.631 220.048 840.207 219.816 840.895 219.624C841.583 219.416 842.359 219.312 843.223 219.312C844.391 219.312 845.431 219.52 846.343 219.936C847.255 220.336 847.967 220.976 848.479 221.856C849.007 222.736 849.271 223.872 849.271 225.264C849.271 226.608 849.023 227.728 848.527 228.624C848.047 229.52 847.375 230.2 846.511 230.664C845.663 231.112 844.687 231.336 843.583 231.336ZM841.183 228.96V235.296C841.055 235.344 840.871 235.384 840.631 235.416C840.391 235.464 840.127 235.488 839.839 235.488C839.295 235.488 838.887 235.384 838.615 235.176C838.359 234.968 838.231 234.608 838.231 234.096V228.936L841.183 228.96ZM853.098 226.824L852.978 224.76L859.41 223.8C859.362 223.192 859.13 222.664 858.714 222.216C858.298 221.768 857.69 221.544 856.89 221.544C856.074 221.544 855.394 221.832 854.85 222.408C854.306 222.968 854.026 223.776 854.01 224.832L854.082 226.08C854.226 227.104 854.618 227.856 855.258 228.336C855.914 228.816 856.738 229.056 857.73 229.056C858.402 229.056 859.026 228.96 859.602 228.768C860.178 228.56 860.634 228.336 860.97 228.096C861.194 228.24 861.37 228.424 861.498 228.648C861.642 228.856 861.714 229.088 861.714 229.344C861.714 229.76 861.53 230.12 861.162 230.424C860.794 230.712 860.298 230.936 859.674 231.096C859.05 231.256 858.338 231.336 857.538 231.336C856.306 231.336 855.21 231.112 854.25 230.664C853.306 230.2 852.562 229.512 852.018 228.6C851.49 227.688 851.226 226.552 851.226 225.192C851.226 224.216 851.378 223.36 851.682 222.624C851.986 221.888 852.394 221.28 852.906 220.8C853.434 220.304 854.042 219.936 854.73 219.696C855.418 219.44 856.138 219.312 856.89 219.312C857.946 219.312 858.866 219.528 859.65 219.96C860.45 220.376 861.074 220.96 861.522 221.712C861.986 222.464 862.218 223.328 862.218 224.304C862.218 224.752 862.098 225.088 861.858 225.312C861.634 225.52 861.314 225.648 860.898 225.696L853.098 226.824ZM867.551 222.36V225.648H864.599V222.12C864.599 221.72 864.695 221.384 864.887 221.112C865.079 220.824 865.351 220.56 865.703 220.32C866.183 220.032 866.791 219.792 867.527 219.6C868.263 219.408 869.055 219.312 869.903 219.312C871.407 219.312 872.159 219.776 872.159 220.704C872.159 220.928 872.127 221.136 872.063 221.328C871.999 221.504 871.919 221.664 871.823 221.808C871.663 221.776 871.463 221.752 871.223 221.736C870.983 221.704 870.727 221.688 870.455 221.688C869.879 221.688 869.335 221.752 868.823 221.88C868.327 221.992 867.903 222.152 867.551 222.36ZM864.599 224.664L867.551 224.808V230.952C867.423 231 867.239 231.04 866.999 231.072C866.759 231.12 866.495 231.144 866.207 231.144C865.663 231.144 865.255 231.048 864.983 230.856C864.727 230.648 864.599 230.288 864.599 229.776V224.664ZM873.97 216.264C873.97 215.8 874.13 215.408 874.45 215.088C874.786 214.768 875.202 214.608 875.698 214.608C876.21 214.608 876.618 214.768 876.922 215.088C877.242 215.408 877.402 215.8 877.402 216.264C877.402 216.712 877.242 217.104 876.922 217.44C876.618 217.76 876.21 217.92 875.698 217.92C875.202 217.92 874.786 217.76 874.45 217.44C874.13 217.104 873.97 216.712 873.97 216.264ZM874.21 224.664H877.186V230.952C877.058 231 876.874 231.04 876.634 231.072C876.394 231.12 876.13 231.144 875.842 231.144C875.298 231.144 874.89 231.048 874.618 230.856C874.346 230.648 874.21 230.288 874.21 229.776V224.664ZM877.186 226.176H874.21V219.744C874.338 219.696 874.522 219.656 874.762 219.624C875.018 219.576 875.29 219.552 875.578 219.552C876.138 219.552 876.546 219.656 876.802 219.864C877.058 220.056 877.186 220.416 877.186 220.944V226.176ZM881.668 226.824L881.548 224.76L887.98 223.8C887.932 223.192 887.7 222.664 887.284 222.216C886.868 221.768 886.26 221.544 885.46 221.544C884.644 221.544 883.964 221.832 883.42 222.408C882.876 222.968 882.596 223.776 882.58 224.832L882.652 226.08C882.796 227.104 883.188 227.856 883.828 228.336C884.484 228.816 885.308 229.056 886.3 229.056C886.972 229.056 887.596 228.96 888.172 228.768C888.748 228.56 889.204 228.336 889.54 228.096C889.764 228.24 889.94 228.424 890.068 228.648C890.212 228.856 890.284 229.088 890.284 229.344C890.284 229.76 890.1 230.12 889.732 230.424C889.364 230.712 888.868 230.936 888.244 231.096C887.62 231.256 886.908 231.336 886.108 231.336C884.876 231.336 883.78 231.112 882.82 230.664C881.876 230.2 881.132 229.512 880.588 228.6C880.06 227.688 879.796 226.552 879.796 225.192C879.796 224.216 879.948 223.36 880.252 222.624C880.556 221.888 880.964 221.28 881.476 220.8C882.004 220.304 882.612 219.936 883.3 219.696C883.988 219.44 884.708 219.312 885.46 219.312C886.516 219.312 887.436 219.528 888.22 219.96C889.02 220.376 889.644 220.96 890.092 221.712C890.556 222.464 890.788 223.328 890.788 224.304C890.788 224.752 890.668 225.088 890.428 225.312C890.204 225.52 889.884 225.648 889.468 225.696L881.668 226.824ZM903.657 223.584V225.912H900.705V223.704C900.705 223 900.505 222.488 900.105 222.168C899.705 221.832 899.169 221.664 898.497 221.664C898.001 221.664 897.553 221.728 897.153 221.856C896.769 221.968 896.425 222.104 896.121 222.264V225.912H893.169V222.072C893.169 221.688 893.249 221.376 893.409 221.136C893.569 220.88 893.809 220.648 894.129 220.44C894.609 220.12 895.225 219.856 895.977 219.648C896.745 219.424 897.593 219.312 898.521 219.312C900.137 219.312 901.393 219.672 902.289 220.392C903.201 221.112 903.657 222.176 903.657 223.584ZM893.169 224.736H896.121V230.952C895.993 231 895.809 231.04 895.569 231.072C895.329 231.12 895.065 231.144 894.777 231.144C894.233 231.144 893.825 231.048 893.553 230.856C893.297 230.648 893.169 230.288 893.169 229.776V224.736ZM900.705 224.736H903.657V230.952C903.545 231 903.361 231.04 903.105 231.072C902.865 231.12 902.609 231.144 902.337 231.144C901.777 231.144 901.361 231.048 901.089 230.856C900.833 230.648 900.705 230.288 900.705 229.776V224.736ZM912.595 221.688C911.635 221.688 910.827 222 910.171 222.624C909.531 223.248 909.211 224.16 909.211 225.36C909.211 226.544 909.523 227.44 910.147 228.048C910.771 228.656 911.579 228.96 912.571 228.96C913.163 228.96 913.659 228.888 914.059 228.744C914.475 228.584 914.835 228.416 915.139 228.24C915.379 228.384 915.563 228.56 915.691 228.768C915.835 228.96 915.907 229.2 915.907 229.488C915.907 230.032 915.579 230.48 914.923 230.832C914.267 231.168 913.403 231.336 912.331 231.336C911.115 231.336 910.043 231.12 909.115 230.688C908.203 230.24 907.483 229.568 906.955 228.672C906.443 227.776 906.187 226.672 906.187 225.36C906.187 224 906.459 222.872 907.003 221.976C907.563 221.08 908.299 220.416 909.211 219.984C910.139 219.536 911.155 219.312 912.259 219.312C913.315 219.312 914.163 219.496 914.803 219.864C915.443 220.232 915.763 220.688 915.763 221.232C915.763 221.472 915.699 221.696 915.571 221.904C915.443 222.112 915.291 222.28 915.115 222.408C914.795 222.216 914.435 222.048 914.035 221.904C913.635 221.76 913.155 221.688 912.595 221.688ZM919.355 226.824L919.235 224.76L925.667 223.8C925.619 223.192 925.387 222.664 924.971 222.216C924.555 221.768 923.947 221.544 923.147 221.544C922.331 221.544 921.651 221.832 921.107 222.408C920.563 222.968 920.283 223.776 920.267 224.832L920.339 226.08C920.483 227.104 920.875 227.856 921.515 228.336C922.171 228.816 922.995 229.056 923.987 229.056C924.659 229.056 925.283 228.96 925.859 228.768C926.435 228.56 926.891 228.336 927.227 228.096C927.451 228.24 927.627 228.424 927.755 228.648C927.899 228.856 927.971 229.088 927.971 229.344C927.971 229.76 927.787 230.12 927.419 230.424C927.051 230.712 926.555 230.936 925.931 231.096C925.307 231.256 924.595 231.336 923.795 231.336C922.563 231.336 921.467 231.112 920.507 230.664C919.563 230.2 918.819 229.512 918.275 228.6C917.747 227.688 917.483 226.552 917.483 225.192C917.483 224.216 917.635 223.36 917.939 222.624C918.243 221.888 918.651 221.28 919.163 220.8C919.691 220.304 920.299 219.936 920.987 219.696C921.675 219.44 922.395 219.312 923.147 219.312C924.203 219.312 925.123 219.528 925.907 219.96C926.707 220.376 927.331 220.96 927.779 221.712C928.243 222.464 928.475 223.328 928.475 224.304C928.475 224.752 928.355 225.088 928.115 225.312C927.891 225.52 927.571 225.648 927.155 225.696L919.355 226.824Z" fill="#4B4B4B"/>
<defs>
<clipPath id="clip0_71_140">
<rect width="112" height="112" fill="white" transform="translate(28 27.5742) rotate(-12.6746)"/>
</clipPath>
</defs>
</svg>
