<svg width="236" height="196" viewBox="0 0 236 196" fill="none" xmlns="http://www.w3.org/2000/svg">
<g clip-path="url(#clip0_202_7)">
<g clip-path="url(#clip1_202_7)">
<path d="M126.805 69.2456C126.987 67.8036 127.471 66.4807 128.087 65.2397C125.545 67.4698 123.376 70.0028 121.692 72.7661C118.88 77.3283 117.296 82.5442 116.862 87.8806C117.8 88.7693 118.839 89.7785 119.978 90.919C119.636 82.4638 122.046 74.9869 126.805 69.2456ZM195.401 69.1559C188.625 61.186 178.518 55.7769 166.954 53.9208C165.916 53.7673 164.873 53.6528 163.827 53.5777C163.191 53.5159 162.556 53.4757 161.83 53.4464H161.699C158.733 53.3351 155.86 53.5576 153.148 54.0924L152.885 54.1418C152.713 54.1727 152.542 54.2036 152.35 54.2531C147.338 55.2113 142.074 56.9886 137.021 59.4304C136.89 60.217 136.669 60.9727 136.396 61.6898C140.18 59.7479 144.191 58.2839 148.336 57.3317C150.11 56.9307 151.904 56.6274 153.711 56.4229C155.517 55.9995 157.494 55.746 159.732 55.6657C160.095 55.6564 160.458 55.6456 160.821 55.6456C164.169 55.6456 167.568 56.0891 170.926 56.9576C178.773 58.9961 186.002 63.345 191.286 69.2069C196.642 75.16 199.899 83.1114 200.463 91.5851C201.351 104.834 195.613 115.812 184.723 121.694C180.071 124.175 175.063 125.921 169.878 126.871C167.185 127.355 164.502 127.628 161.75 127.586L161.487 127.607C161.153 127.627 160.832 127.658 160.509 127.668C157.796 127.735 155.082 127.526 152.411 127.042C152.442 127.607 152.431 128.223 152.391 128.939C152.391 129.15 152.36 129.362 152.34 129.574C154.78 130.13 157.252 130.371 159.692 130.371C170.624 130.371 181.011 125.63 185.549 123.228L185.951 123.017C191.398 119.958 195.824 115.771 198.79 110.899C206.564 98.2955 205.143 80.7499 195.412 69.1667L195.401 69.1559Z" fill="#750077"/>
<path d="M162.546 103.532C159.389 103.532 155.608 102.039 152.119 99.4763C150.816 104.128 151.836 109.465 155.023 113.259C157.483 116.155 161.113 118.283 165.148 119.212C165.491 119.372 165.854 119.495 166.237 119.595C167.269 119.832 168.324 119.95 169.383 119.949C173.921 119.949 178.217 117.98 180.103 116.991C182.443 115.71 184.349 113.945 185.61 111.855C188.846 106.609 188.251 99.3047 184.207 94.4814C181.394 91.1725 177.199 88.9332 172.398 88.1543C171.966 88.094 171.532 88.043 171.107 88.0136C170.844 87.9935 170.582 87.9734 170.22 87.9518C169.027 87.9079 167.832 87.9997 166.66 88.2254L166.328 88.2872C166.105 88.3258 165.874 88.3969 165.642 88.4479C166.811 89.9609 167.74 91.5249 168.364 93.0781C169.715 96.4487 169.504 99.3944 167.789 101.393C166.58 102.796 164.765 103.532 162.536 103.532H162.546Z" fill="#750077"/>
<path d="M131.323 51.5685C132.695 53.1634 133.703 55.2003 133.714 57.3207C133.745 58.8136 133.229 60.1953 132.525 61.5383C132.423 61.7299 132.312 61.9107 132.211 62.1023C131.454 63.4144 130.617 64.6863 129.962 65.9969C128.964 67.9751 128.359 70.0429 129.045 72.5156C129.822 75.3809 132.231 77.4394 134.632 78.9632C135.257 79.3651 135.883 79.7499 136.516 80.1131C138.424 81.2134 140.379 82.1809 142.296 83.1406C143.566 83.7743 144.826 84.4017 146.037 85.0678C147.247 85.7231 148.407 86.4093 149.497 87.1665C147.509 89.7088 146.743 92.2712 151.695 96.5598C152.078 96.8921 152.461 97.195 152.844 97.4871C152.885 97.518 152.914 97.5489 152.956 97.5798C153.085 97.6802 153.207 97.7699 153.339 97.8611C153.651 98.0929 153.963 98.3046 154.276 98.5179C154.408 98.6075 154.539 98.6879 154.669 98.7698C155.063 99.0217 155.456 99.2535 155.849 99.4761C155.88 99.4962 155.92 99.5163 155.951 99.5363C156.374 99.7682 156.807 99.9799 157.22 100.172C157.342 100.233 157.463 100.274 157.583 100.334C157.897 100.464 158.198 100.586 158.501 100.697C158.632 100.746 158.754 100.787 158.884 100.838C159.238 100.958 159.579 101.06 159.924 101.15C159.985 101.161 160.035 101.181 160.094 101.201C160.487 101.292 160.872 101.363 161.244 101.423L161.558 101.454C161.83 101.484 162.102 101.504 162.353 101.504H162.678C162.979 101.504 163.282 101.473 163.564 101.433C163.604 101.433 163.655 101.433 163.696 101.423C164.018 101.372 164.31 101.281 164.592 101.181L164.823 101.09C165.036 100.998 165.228 100.898 165.419 100.787C165.738 100.59 166.027 100.349 166.277 100.07C168.285 97.7405 167.043 93.2201 163.543 89.0226C162.674 87.9834 161.723 87.0149 160.701 86.1264C160.408 85.8736 160.108 85.6283 159.803 85.3908C159.701 85.3089 159.612 85.2486 159.52 85.1775L158.955 84.7649C158.844 84.6938 158.743 84.6227 158.632 84.564C158.472 84.462 158.309 84.3507 158.158 84.2595C158.048 84.1992 157.946 84.139 157.835 84.0895C157.696 84.0076 157.554 83.9365 157.412 83.867C157.301 83.816 157.2 83.7743 157.1 83.7248C156.969 83.6753 156.837 83.6135 156.717 83.5641C156.618 83.526 156.517 83.4925 156.414 83.4636C156.294 83.4219 156.172 83.3925 156.06 83.3616C155.967 83.3425 155.873 83.3225 155.779 83.3013C155.669 83.2799 155.558 83.2634 155.446 83.2519C155.355 83.2519 155.265 83.2411 155.174 83.2303H154.871C154.76 83.2303 154.659 83.2411 154.559 83.2519C154.466 83.2519 154.388 83.272 154.296 83.2812C154.196 83.3013 154.096 83.3214 153.994 83.3523C153.912 83.371 153.831 83.3942 153.751 83.4219C153.651 83.4528 153.56 83.493 153.459 83.5332C153.379 83.5641 153.308 83.595 153.228 83.6352L152.945 83.7851L152.733 83.9072C152.642 83.9674 152.551 84.0277 152.461 84.0988L152.261 84.2394C152.163 84.3136 152.069 84.3909 151.976 84.4713L151.796 84.6227C151.694 84.7154 151.595 84.8143 151.493 84.9055C151.442 84.9457 151.402 84.9967 151.352 85.0369C151.201 85.1883 151.059 85.3398 150.908 85.4913C148.155 83.5842 144.868 82.0402 141.267 80.2135C138.502 78.7608 135.65 77.4085 133.289 75.4118C132.574 74.7859 131.908 74.0595 131.445 73.2327C129.842 70.3767 130.87 67.7618 132.403 65.099C132.715 64.5442 133.038 63.9801 133.351 63.4036C133.703 62.7592 134.037 62.0931 134.329 61.4162C134.44 61.1513 134.541 60.8822 134.632 60.6094C134.802 60.084 134.944 59.5601 135.035 59.0053C135.115 58.4999 135.146 57.9853 135.135 57.4814C135.126 56.9718 135.065 56.4644 134.954 55.9669C134.429 53.4555 132.866 51.2857 130.911 49.6815C127.602 47.028 123.275 46.1301 119.222 45.3635L119.171 45.5644C120.2 45.8473 121.229 46.1301 122.247 46.4438C125.586 47.4623 129.004 48.8439 131.314 51.5593L131.323 51.5685ZM162.052 155.122L152.359 145.426C152.66 145.037 152.892 144.6 153.045 144.134C153.116 143.911 153.177 143.679 153.207 143.438L153.277 142.287C153.277 142.155 153.277 142.004 153.237 141.843C153.216 141.73 153.19 141.619 153.157 141.509C152.992 140.994 152.685 140.535 152.27 140.188L147.6 135.487C148.006 134.58 148.287 133.623 148.438 132.642C148.469 132.419 148.487 132.238 148.518 132.016V131.894C148.567 131.631 148.598 131.319 148.609 130.986V130.875C148.664 130.102 148.656 129.326 148.587 128.554C148.578 128.444 148.567 128.322 148.547 128.222C148.407 127.355 147.892 125.668 146.067 124.145L130.103 108.063C128.419 106.247 126.714 104.451 124.99 102.674L123.881 101.515C123.306 100.918 122.61 100.182 121.823 99.3741C121.28 98.81 120.705 98.215 120.089 97.5891C119.545 97.0234 118.97 96.4485 118.394 95.8628C117.247 94.6971 116.087 93.5431 114.916 92.401C114.181 91.6865 113.438 90.9807 112.687 90.2837C111.943 89.5924 111.18 88.9224 110.398 88.2746C110.449 88.1742 110.489 88.0737 110.538 87.9624C110.768 87.4204 110.879 86.8354 110.863 86.247C110.863 86.1372 110.863 86.026 110.852 85.9054C110.832 85.6736 110.801 85.3089 110.64 84.9256C110.591 84.8008 110.534 84.6794 110.469 84.5624C110.407 84.4538 110.343 84.3461 110.277 84.2394L109.984 83.7758C109.916 83.6633 109.845 83.5525 109.772 83.4435C109.752 83.4126 109.723 83.3508 109.672 83.2812C109.672 83.2812 109.61 83.1901 109.561 83.1298C109.561 83.1298 109.5 83.0587 109.391 82.949C109.144 82.7071 108.877 82.4874 108.592 82.2922C108.316 82.0941 108.022 81.9218 107.715 81.7775C107.349 81.6065 106.968 81.4719 106.576 81.3757C106.36 81.3225 106.141 81.2848 105.92 81.2629L105.548 81.232C105.396 81.2198 105.245 81.2136 105.093 81.2134H104.327C103.826 81.2416 103.336 81.3769 102.89 81.6101C102.445 81.8434 102.055 82.1692 101.746 82.5657L97.52 86.944C96.7414 86.1724 95.968 85.3955 95.2 84.6134L93.5781 82.9598C92.9417 82.303 92.3872 81.7389 91.8929 81.2443C91.55 80.8997 91.2271 80.5875 90.9352 80.3047C90.7322 80.1072 90.5235 79.9155 90.3096 79.7298C90.39 79.6494 90.4904 79.5583 90.6031 79.447L91.1762 78.903L91.2472 78.8319C91.5592 78.529 91.9933 78.1148 92.4567 77.5708C92.5988 77.3993 92.8011 77.1674 93.0328 76.8444L93.5472 75.996C93.7171 75.4613 93.8283 74.9466 93.8283 74.6236C93.8283 74.4938 93.8191 74.3516 93.8191 74.3516C93.8095 74.188 93.7826 74.0258 93.7387 73.8679C93.6886 73.6708 93.6138 73.4807 93.5163 73.3022L93.3757 73.0704L93.0622 72.5759C93.0622 72.5759 93.0128 72.4847 92.951 72.3843L92.8614 72.2637L92.7301 72.1123C92.0308 71.4231 91.1222 70.9865 90.1474 70.8713L89.9266 70.8512H89.8957C89.7953 70.8512 89.684 70.8295 89.5435 70.8295H88.9982C88.8577 70.8512 88.7156 70.8604 88.6059 70.8805C87.9873 71.0108 87.4319 71.3489 87.0319 71.8387L82.3516 76.642C82.1199 76.8645 81.879 77.0963 81.6256 77.3483L80.7699 78.1952C80.668 78.2972 80.5166 78.4378 80.3451 78.6001C79.6593 79.2353 78.6306 80.2043 77.9046 81.2026L77.8243 81.3139C77.6436 81.5766 77.0983 82.3524 77.1292 83.4219C77.1292 83.7356 77.1493 84.2193 77.4412 84.7355C77.503 84.8344 77.642 85.057 77.7656 85.2486L77.9046 85.4712C77.9046 85.4712 77.9262 85.5021 77.9355 85.5314C77.9556 85.5623 77.9757 85.6025 78.0158 85.652L78.1085 85.7741C78.1085 85.7741 79.1048 86.9733 80.8302 87.165L81.0819 87.1866C81.1823 87.1866 81.2935 87.2067 81.4449 87.2067H81.9794C82.1215 87.1866 82.2512 87.1758 82.3624 87.1557C82.4536 87.1356 82.5632 87.1155 82.6868 87.0753C82.988 86.9733 83.2707 86.8234 83.5225 86.6117C83.6831 86.4803 83.8252 86.3382 83.9364 86.1975L85.4378 84.6521L90.7437 90.2435C91.2472 90.7783 91.7925 91.3439 92.4783 92.0502C92.4474 92.0811 92.4073 92.1104 92.3764 92.1506L92.0134 92.4937C91.0155 93.4411 89.5126 94.8644 88.5039 96.2878L88.4128 96.4083C88.2601 96.62 88.1223 96.8421 88.0004 97.0729C87.7996 97.4469 87.6575 97.841 87.5772 98.2243C87.5028 98.5485 87.4686 98.8807 87.4752 99.2133C87.486 99.6569 87.5061 100.263 87.8691 100.918L87.9494 101.06C88.0112 101.171 88.1008 101.301 88.1919 101.443L88.3726 101.725C88.4653 101.867 88.5348 101.978 88.5642 102.038C88.5843 102.069 88.6152 102.13 88.6661 102.199C88.6661 102.199 88.7264 102.292 88.7974 102.371C88.7974 102.371 88.9982 102.603 89.3612 102.905C89.5126 103.028 89.6856 103.159 89.8957 103.3C90.6834 103.814 91.5299 104.126 92.4165 104.227L92.7903 104.258C92.9216 104.269 93.0838 104.278 93.2043 104.278H94.0106C94.2021 104.258 94.3844 104.238 94.5358 104.208C95.0746 104.084 95.578 103.839 96.0078 103.491C97.3084 104.813 98.85 106.387 100.504 108.092L105.911 113.662C107.191 114.983 108.482 116.326 109.741 117.618C111.003 118.909 112.213 120.17 113.342 121.32L114.644 122.652C115.481 123.5 116.236 124.276 116.893 124.942L118.031 126.163C118.862 127.05 119.699 127.931 120.543 128.806C121.006 129.282 121.491 129.786 122.006 130.32C122.358 130.683 122.843 131.209 123.418 131.844C126.956 135.739 130.033 138.533 130.668 139.068C131.253 139.573 131.868 140.016 131.868 140.016C131.868 140.016 132.211 140.268 132.503 140.46C134.581 141.852 137.415 142.247 137.716 142.256H138.243C138.435 142.256 138.626 142.256 138.869 142.237C139.069 142.226 139.281 142.196 139.523 142.155L139.624 142.135C139.836 142.095 140.049 142.044 140.27 141.984L140.392 141.944C140.663 141.852 140.886 141.763 141.097 141.661C141.258 141.58 141.521 141.44 141.823 141.268C142.015 141.449 142.236 141.652 142.458 141.863L142.812 142.196C143.164 142.529 143.498 142.842 143.739 143.084C143.901 143.245 144.012 143.367 144.102 143.478L144.164 143.548C144.778 144.234 145.696 145.263 146.867 146.161C147.148 146.384 147.33 146.495 147.54 146.616C147.571 146.636 148.328 147.03 149.165 147.059H149.494C149.556 147.059 149.625 147.05 149.695 147.039H149.817C149.888 147.008 149.968 146.999 150.08 146.968L150.171 146.948C150.291 146.908 150.412 146.867 150.543 146.807L150.583 146.787C150.762 146.696 150.937 146.598 151.108 146.493L151.24 146.413L162.16 158.027L162.089 155.102L162.049 155.122H162.052ZM94.8262 92.877C95.0579 92.6544 95.2695 92.4334 95.4811 92.2202C95.7638 91.9389 96.1067 91.5865 96.5407 91.1306C97.2559 90.395 98.1842 89.4152 99.3643 88.1742C99.9189 87.6193 100.453 87.046 100.997 86.4494L101.108 86.3289L101.986 85.3908C102.328 85.0261 102.691 84.6536 103.085 84.2595L103.255 84.0679C103.468 83.8469 103.923 83.3724 104.599 83.2411C104.852 83.1964 105.11 83.1896 105.365 83.221C105.455 83.221 105.526 83.2411 105.575 83.2519C106.029 83.3415 106.443 83.493 106.826 83.6846C107.018 83.7851 107.199 83.8963 107.37 84.0277L107.492 84.1081C107.624 84.2008 107.735 84.2997 107.844 84.4017C107.956 84.513 108.056 84.6227 108.147 84.7448C108.299 84.9565 108.421 85.1775 108.51 85.4001C108.601 85.6319 108.641 85.8637 108.652 86.0863C108.652 86.2269 108.632 86.7616 108.096 87.4988C107.927 87.7297 107.745 87.9515 107.552 88.1633C107.372 88.3766 107.149 88.6393 106.898 88.9113C106.666 89.1741 106.403 89.4569 106.11 89.7799C105.615 90.3146 105.041 90.9297 104.406 91.6051L103.489 92.5323C103.237 92.775 103.005 93.0083 102.783 93.2402C102.006 94.0175 100.665 95.4193 98.8994 97.2862C98.3557 97.841 97.8614 98.3649 97.3578 98.8996C97.0551 99.2242 96.7523 99.5456 96.4187 99.8887C96.2581 100.06 96.0866 100.243 95.9043 100.423C95.7236 100.606 95.5321 100.797 95.3205 101.02L94.9868 101.403C94.9374 101.464 94.8663 101.533 94.786 101.604C94.5636 101.805 94.352 101.958 94.1203 102.068C93.9729 102.138 93.8171 102.189 93.6569 102.219C93.4004 102.265 93.1384 102.272 92.8799 102.239C92.8084 102.238 92.7373 102.227 92.6683 102.208C92.4455 102.164 92.2261 102.103 92.0118 102.028C91.8079 101.958 91.6092 101.874 91.4171 101.776C91.226 101.677 91.0436 101.562 90.8719 101.433L90.7514 101.352C90.5022 101.175 90.2813 100.961 90.0965 100.717C89.801 100.328 89.6254 99.8614 89.5914 99.3741C89.5914 99.2334 89.6115 98.6987 90.1474 97.9615C90.6417 97.2862 92.0937 95.682 94.2207 93.4411L94.7953 92.877H94.8262ZM88.5735 81.3942L88.8453 81.1315C89.0075 81.2737 89.179 81.4252 89.3597 81.5952L89.9451 82.1515C90.5599 82.7573 91.2967 83.5038 92.1941 84.4218L94.009 86.2671C94.6346 86.9038 95.3297 87.5993 96.1067 88.3766L94.9173 89.6083C94.5837 89.9298 94.2407 90.2636 93.8778 90.6268L92.5864 89.2853C91.8713 88.5389 91.2658 87.9022 90.529 87.1248L86.8295 83.2117L88.5951 81.4066L88.575 81.3958L88.5735 81.3942ZM88.5827 78.3173L87.7363 79.1549L87.2821 79.6093C87.1122 79.7901 86.9099 79.9925 86.6874 80.2135C86.3553 80.5566 85.9615 80.9708 85.5181 81.4344L85.064 81.9089C84.7103 82.2628 84.3875 82.6043 84.0554 82.9474L83.9843 83.0293C83.5262 83.5185 83.0591 83.9992 82.5833 84.4713L82.3825 84.7139C82.3207 84.785 82.2203 84.8854 82.089 84.9766C81.9521 85.0784 81.7935 85.1472 81.6256 85.1775C81.5438 85.1992 81.4635 85.1992 81.3939 85.1992H81.1808C81.1314 85.1992 81.0912 85.1992 81.0711 85.1883C80.9335 85.1621 80.7981 85.1249 80.6664 85.0771C80.5367 85.0369 80.4146 84.9766 80.2942 84.9163C80.1749 84.8586 80.063 84.7871 79.9605 84.7031L79.8709 84.6428C79.7267 84.5405 79.5977 84.4182 79.4879 84.2796C79.3236 84.0674 79.2253 83.8116 79.2052 83.544C79.2052 83.5038 79.2052 83.3431 79.3365 83.0803C79.3859 82.9876 79.4462 82.898 79.5172 82.7867C79.6995 82.5348 80.3142 81.7976 82.2806 79.7499L83.127 78.9123C83.3804 78.6603 83.7233 78.3064 84.1666 77.8536C84.6099 77.3993 85.1443 76.8336 85.79 76.1583C86.1731 75.775 86.5469 75.3809 86.9191 74.9775L87.0906 74.7952C87.242 74.6252 87.3933 74.4722 87.5957 74.2604C87.9077 73.9374 88.1703 73.6654 88.3618 73.4738C88.4809 73.3308 88.6162 73.2022 88.765 73.0905C88.8268 73.0503 88.9874 72.9298 89.2284 72.8896C89.3102 72.868 89.3906 72.868 89.4601 72.868H89.6732C89.7109 72.865 89.7487 72.8719 89.7829 72.8881C90.0656 72.9499 90.3282 73.0395 90.5599 73.1508C90.6711 73.2126 90.7823 73.2822 90.8935 73.3625L90.9738 73.4243C91.1252 73.5248 91.2457 73.6453 91.3569 73.786C91.5268 74.0178 91.6288 74.2805 91.6396 74.5232C91.6396 74.5943 91.6288 74.857 91.3152 75.2804C91.2658 75.3407 91.1947 75.4412 91.0835 75.5725C90.9287 75.7634 90.7674 75.9489 90.6 76.1289C90.3884 76.37 90.1165 76.6621 89.7829 77.0253C89.44 77.3884 89.0368 77.8227 88.5534 78.3265L88.5827 78.3173ZM132.582 136.899C132.259 136.606 131.907 136.293 131.524 135.941C130.758 135.235 129.871 134.406 128.882 133.459C127.389 132.036 125.665 130.351 123.759 128.464L122.73 127.375C122.135 126.738 121.57 126.143 121.016 125.568C120.633 125.165 120.168 124.701 119.624 124.146C119.079 123.59 118.455 122.965 117.718 122.228C116.981 121.491 116.135 120.655 115.177 119.695L111.888 116.437L104.991 109.324C103.7 107.992 102.4 106.65 101.209 105.418L98.7789 102.896C98.385 102.482 98.022 102.108 97.6791 101.756L103.379 95.8628C104.054 95.2075 104.76 94.5105 105.677 93.5833C105.818 93.4411 106.02 93.2494 106.261 93.0176L106.887 92.4226C107.18 92.1398 107.502 91.8276 107.824 91.4953C108.087 91.2218 108.359 90.939 108.621 90.6469L109.054 91.041C109.499 91.4428 110.002 91.9188 110.558 92.4226C111.113 92.9264 111.697 93.4921 112.322 94.0763C112.948 94.6635 113.604 95.2879 114.269 95.9231L114.662 96.2971C115.983 97.5582 117.355 98.8703 118.696 100.161C120.197 101.615 121.694 103.075 123.184 104.541L124.333 105.761C124.888 106.347 125.412 106.902 125.926 107.437C126.36 107.891 126.884 108.426 127.52 109.07L129.224 110.786C129.961 111.523 130.807 112.361 131.765 113.32L135.053 116.578C135.688 117.224 136.314 117.859 136.959 118.494C137.594 119.111 138.231 119.735 138.937 120.411C139.723 121.168 140.52 121.945 141.335 122.743C142.273 123.67 143.07 124.478 143.847 125.285L144.321 125.74C144.734 126.143 145.582 126.981 146.116 128.212C146.308 128.645 146.439 129.109 146.51 129.563C146.55 129.837 146.559 130.149 146.559 130.492V130.775C146.539 131.147 146.51 131.461 146.49 131.642C146.472 131.76 146.451 131.878 146.428 131.996C146.408 132.096 146.388 132.176 146.379 132.247C146.244 132.797 146.072 133.336 145.864 133.862C145.663 134.377 145.421 134.881 145.148 135.346C144.865 135.841 144.542 136.293 144.19 136.717L144.009 136.96C143.747 137.292 143.464 137.595 143.161 137.878C142.854 138.164 142.523 138.424 142.173 138.655C141.87 138.856 141.558 139.038 141.235 139.19C140.892 139.35 140.509 139.493 140.066 139.622C139.473 139.798 138.858 139.89 138.24 139.896C137.746 139.896 136.726 139.785 135.405 139.058C135.211 138.949 135.019 138.835 134.831 138.715C134.61 138.564 134.367 138.403 134.136 138.221C133.753 137.927 133.228 137.483 132.573 136.909L132.582 136.899ZM149.293 144.951L149.02 144.889L148.869 144.82L148.768 144.769C148.653 144.71 148.545 144.639 148.445 144.557C148.256 144.404 148.071 144.246 147.891 144.083C147.699 143.913 147.448 143.681 147.145 143.387C146.681 142.942 146.065 142.347 145.259 141.56L144.13 140.37C144.068 140.309 144.028 140.259 143.887 140.117C143.927 140.097 143.967 140.067 144.018 140.037C144.018 140.037 144.17 139.947 144.33 139.825C144.351 139.816 144.423 139.754 144.553 139.644C144.754 139.472 145.067 139.18 145.441 138.766C145.722 138.452 145.996 138.129 146.237 137.797C146.318 137.686 146.399 137.575 146.49 137.454L147.82 138.775C148.223 139.19 148.638 139.582 149.06 139.996C149.545 140.471 150.06 140.955 150.623 141.54L150.795 141.712C150.795 141.712 150.857 141.763 150.887 141.803C151.006 141.944 151.098 142.075 151.169 142.216C151.207 142.303 151.234 142.395 151.249 142.489C151.26 142.579 151.269 142.659 151.26 142.721L151.24 142.944C151.24 142.944 151.229 143.024 151.218 143.053C151.181 143.193 151.138 143.331 151.088 143.467C150.987 143.728 150.843 143.969 150.663 144.183L150.594 144.276C150.475 144.426 150.331 144.555 150.169 144.657C150.029 144.756 149.872 144.828 149.706 144.871C149.675 144.871 149.646 144.871 149.565 144.891C149.474 144.911 149.383 144.922 149.303 144.931L149.293 144.951Z" fill="#750077"/>
</g>
<path d="M38.6898 226.544C49.7592 216.965 56.7584 203.525 58.2604 188.964C59.7624 174.403 55.6542 159.817 46.7732 148.18C37.8922 136.543 24.9073 128.731 10.4657 126.338C-3.97586 123.944 -18.7866 127.149 -30.947 135.298L-21.3153 149.67C-12.8138 143.973 -2.45945 141.733 7.6368 143.406C17.7331 145.079 26.811 150.541 33.0198 158.676C39.2285 166.811 42.1007 177.009 41.0506 187.189C40.0005 197.369 35.1073 206.765 27.3686 213.462L38.6898 226.544Z" fill="#6F006A"/>
</g>
<defs>
<clipPath id="clip0_202_7">
<rect width="236" height="196" fill="white"/>
</clipPath>
<clipPath id="clip1_202_7">
<rect width="173" height="136" fill="white" transform="translate(77.1279 33)"/>
</clipPath>
</defs>
</svg>
