<svg width="76" height="76" viewBox="0 0 76 76" fill="none" xmlns="http://www.w3.org/2000/svg">
<path fill-rule="evenodd" clip-rule="evenodd" d="M48.9145 9H27.3658C19.4318 9 13 15.4318 13 23.3658V44.9145C13 52.8483 19.4318 59.2803 27.3658 59.2803H48.9145C56.8483 59.2803 63.2803 52.8483 63.2803 44.9145V23.3658C63.2803 15.4318 56.8483 9 48.9145 9Z" stroke="#85327D" stroke-width="3" stroke-linecap="round" stroke-linejoin="round"/>
<path fill-rule="evenodd" clip-rule="evenodd" d="M38.1406 44.9149C32.1899 44.9149 27.3662 40.0912 27.3662 34.1406C27.3662 28.1899 32.1899 23.3662 38.1406 23.3662C44.0912 23.3662 48.9149 28.1899 48.9149 34.1406C48.9149 36.9979 47.7796 39.7385 45.7591 41.7591C43.7385 43.7796 40.9979 44.9149 38.1406 44.9149Z" stroke="#85327D" stroke-width="3" stroke-linecap="round" stroke-linejoin="round"/>
<path d="M52.5065 16.1833C50.523 16.1833 48.915 17.7913 48.915 19.7748C48.915 21.7583 50.523 23.3662 52.5065 23.3662C54.49 23.3662 56.0979 21.7583 56.0979 19.7748C56.0979 17.7913 54.49 16.1833 52.5065 16.1833Z" fill="#85327D"/>
<path d="M52.5057 17.9789C51.5139 17.9789 50.71 18.7828 50.71 19.7746C50.71 20.7663 51.5139 21.5703 52.5057 21.5703C53.4974 21.5703 54.3014 20.7663 54.3014 19.7746C54.3014 18.7828 53.4974 17.9789 52.5057 17.9789Z" stroke="#85327D" stroke-width="3" stroke-linecap="round"/>
</svg>
