<svg width="245" height="196" viewBox="0 0 245 196" fill="none" xmlns="http://www.w3.org/2000/svg">
<g clip-path="url(#clip0_202_6)">
<path d="M32.6898 226.544C43.7592 216.965 50.7584 203.525 52.2604 188.964C53.7624 174.403 49.6542 159.817 40.7732 148.18C31.8922 136.543 18.9073 128.731 4.46571 126.338C-9.97586 123.944 -24.7866 127.149 -36.947 135.298L-27.3153 149.67C-18.8138 143.973 -8.45945 141.733 1.6368 143.406C11.7331 145.079 20.811 150.541 27.0198 158.676C33.2285 166.811 36.1007 177.009 35.0506 187.189C34.0005 197.369 29.1073 206.765 21.3686 213.462L32.6898 226.544Z" fill="#6F006A"/>
<g clip-path="url(#clip1_202_6)">
<path d="M103.537 89.2293C102.887 88.3732 102.052 87.6759 101.243 86.9992C99.6627 85.6782 98.2975 84.5366 98.3328 82.4683C98.324 82.1094 98.3446 81.7269 98.3652 81.3238C98.4093 80.4706 98.4564 79.588 98.2328 78.7142C97.7709 77.0136 96.1351 75.9574 94.0668 76.031C89.3888 76.2428 85.2963 79.6851 83.7546 81.1561L83.5281 81.3709V81.3797C82.0835 82.8626 81.0567 84.6072 80.5507 86.4372C79.1708 91.2947 81.2656 96.92 85.5375 99.8151C87.953 101.43 90.9305 102.281 94.0962 102.281C94.7964 102.281 95.5084 102.239 96.2233 102.154C98.0063 101.925 99.6009 101.433 100.972 100.695C102.102 100.056 103.067 99.1207 103.761 97.9909C104.764 96.3787 105.194 94.4222 104.938 92.6245C104.77 91.3859 104.285 90.212 103.532 89.2323L103.537 89.2293ZM103.199 94.6869C102.961 96.5581 101.931 98.2734 100.454 99.2708C99.8568 99.6621 99.1272 99.9945 98.2299 100.289C94.5875 101.436 90.4715 100.901 87.2175 98.8589C85.0344 97.4849 83.3251 95.3077 82.4042 92.7245C80.9714 88.7115 81.7775 84.822 84.6225 82.0535C86.9056 79.8734 89.7006 78.3994 92.478 77.9051C93.6107 77.7256 95.2171 77.5991 96.0645 78.5494C96.2233 78.7318 96.3351 78.9525 96.4028 79.2114C96.4646 79.4409 96.4764 79.7174 96.4822 79.9969C96.4852 80.3794 96.4616 80.7648 96.4381 81.1738C96.4116 81.5974 96.3881 82.0358 96.391 82.4889C96.3646 85.5105 98.3358 87.0992 100.239 88.635L100.522 88.8645C101.248 89.4647 102.002 90.1237 102.496 90.9887C103.117 92.039 103.364 93.3512 103.196 94.684L103.199 94.6869Z" fill="#750077"/>
<path d="M191.863 86.4382C191.357 84.6023 190.327 82.8606 188.883 81.3778V81.366L188.659 81.1512C187.117 79.6801 183.025 76.2408 178.341 76.026C176.273 75.9643 174.646 77.0087 174.181 78.7181C173.96 79.586 174.004 80.4657 174.051 81.3189C174.072 81.722 174.093 82.1045 174.084 82.4899C174.122 84.5288 172.757 85.6703 171.174 86.9943C170.365 87.6709 169.529 88.3712 168.879 89.2244C168.126 90.2071 167.638 91.381 167.473 92.6137C167.217 94.4143 167.646 96.3708 168.647 97.9801C169.344 99.1129 170.309 100.049 171.448 100.693C172.81 101.428 174.404 101.917 176.193 102.149C176.905 102.235 177.614 102.276 178.315 102.276C181.477 102.276 184.458 101.425 186.876 99.8072C191.145 96.9151 193.243 91.2898 191.863 86.4353V86.4382ZM190.012 92.7226C189.092 95.3058 187.382 97.4859 185.199 98.8569C181.945 100.899 177.829 101.434 174.193 100.29C173.289 99.9955 172.56 99.663 171.968 99.2747C170.486 98.2744 169.456 96.5591 169.218 94.6879C169.05 93.3551 169.297 92.04 169.921 90.9838C170.412 90.1247 171.165 89.4656 171.886 88.8684L172.174 88.636C174.078 87.1002 176.049 85.5085 176.023 82.4987C176.026 82.0397 175.999 81.6014 175.976 81.1747C175.952 80.7658 175.928 80.3804 175.931 80.0038C175.937 79.7155 175.949 79.4389 176.014 79.2035C176.081 78.9505 176.193 78.7298 176.346 78.5533C176.885 77.9502 177.72 77.7795 178.553 77.7795C179.035 77.7795 179.515 77.8384 179.933 77.9031C182.722 78.4003 185.514 79.8743 187.794 82.0515C190.639 84.82 191.448 88.7095 190.012 92.7226Z" fill="#750077"/>
<path d="M210.223 58.4436C203.953 49.5761 193.311 48.6081 188.198 48.1462C181.14 47.5077 173.796 48.9788 166.376 52.5211C165.19 53.086 164.564 53.4508 163.899 53.8392C163.463 54.0922 163.01 54.3541 162.369 54.6924C153.087 59.5646 141.112 59.4616 136.396 59.1939H136.364H136.331C126.275 59.7676 116.41 58.0847 109.946 54.6924C109.305 54.3541 108.852 54.0922 108.416 53.8392C107.751 53.4538 107.125 53.089 105.939 52.5211C98.5132 48.9759 91.1726 47.5048 84.1115 48.1462C78.9981 48.6081 68.3564 49.5761 62.0868 58.4436C56.5291 66.302 57.9649 75.5138 58.8387 79.1091C60.2509 84.9139 64.4316 93.1342 76.3325 99.345C77.4829 99.9452 78.6774 100.487 79.8807 100.951L81.643 101.631L80.578 100.069C79.1187 97.9298 77.3328 94.4228 77.1063 89.8625C77.0151 87.9884 77.1622 85.0757 78.3979 81.8364C79.054 80.1123 79.9513 78.4853 81.0605 76.9937L82.2991 75.3314L80.3721 76.0934C76.9268 77.4556 73.2874 76.8701 71.3103 74.6312C70.0629 73.216 69.5509 71.1712 69.8746 68.8705C70.566 63.9395 75.7559 61.218 77.9566 60.2766C82.3845 58.3789 86.3769 59.0909 89.2926 59.6087C95.1209 60.6443 99.4046 63.4746 101.973 65.6665C104.068 67.4524 107.881 71.3124 109.899 77.0849C111.238 80.9126 111.441 84.6432 111.444 86.5291C111.444 87.0087 111.432 87.2999 111.42 87.6059C111.414 87.7677 111.408 87.9325 111.403 88.1326C111.397 88.3885 111.261 94.4434 113.512 100.766C114.236 102.799 114.783 103.529 116.819 106.25C117.905 107.698 119.387 109.684 121.562 112.746C127.367 120.922 128.641 123.467 129.45 126.392C130.362 129.699 130.432 132.735 129.659 135.418C129.45 136.139 129.182 136.851 128.861 137.531L128.599 138.084L129.161 138.325C130.721 138.99 132.353 139.426 134.019 139.614C134.675 139.687 135.334 139.723 136.013 139.723H136.155H136.269C136.964 139.723 137.62 139.69 138.276 139.614C139.941 139.423 141.577 138.99 143.133 138.325L143.695 138.087L143.434 137.534C143.113 136.854 142.845 136.142 142.636 135.421C141.862 132.738 141.933 129.702 142.845 126.395C143.651 123.467 144.925 120.925 150.733 112.749C152.907 109.686 154.393 107.701 155.476 106.253C157.512 103.532 158.059 102.802 158.783 100.769C161.033 94.4463 160.901 88.3915 160.892 88.1384C160.886 87.9384 160.88 87.7707 160.874 87.6089C160.863 87.3029 160.851 87.0116 160.851 86.535C160.851 84.652 161.057 80.9185 162.395 77.0908C164.414 71.3183 168.227 67.4583 170.322 65.6724C172.89 63.4805 177.174 60.6531 183.002 59.6146C185.918 59.0968 189.91 58.3848 194.338 60.2824C196.539 61.2239 201.729 63.9483 202.42 68.8793C202.741 71.1801 202.232 73.2248 200.984 74.637C199.01 76.876 195.368 77.4615 191.923 76.0993L189.995 75.3373L191.234 76.9996C192.346 78.4883 193.241 80.1182 193.897 81.8423C195.132 85.0845 195.28 87.9972 195.188 89.8684C194.965 94.4287 193.176 97.9357 191.717 100.075L190.652 101.637L192.414 100.957C193.62 100.492 194.815 99.9511 195.965 99.3509C207.866 93.14 212.047 84.9168 213.459 79.115C214.333 75.5197 215.768 66.3108 210.211 58.4495L210.223 58.4436ZM210.258 80.0476C207.395 89.6772 199.822 95.076 195.435 97.4856C196.142 95.8792 196.642 94.2051 196.918 92.4928C197.883 86.5673 196.009 81.5451 194.412 78.5442C195.509 78.7148 196.618 78.6913 197.677 78.4647C200.749 77.8087 203.417 75.5138 204.318 72.7541C206.107 67.2759 200.172 61.9683 199.49 61.3828C192.123 55.0455 180.59 57.7199 174.938 60.2971C171.619 61.8123 165.541 65.3576 162.139 72.0862C158.88 78.5383 158.553 87.0557 158.532 89.5153V89.7066C158.527 90.4245 158.518 91.6219 158.315 93.2136C157.947 96.091 157.07 99.0125 155.708 101.899C154.872 103.67 154.358 104.376 151.886 107.757C151.036 108.919 149.959 110.393 148.564 112.329C144.369 118.151 143.875 119.019 143.31 120.163C142.345 122.111 140.73 125.374 140.371 129.905C140.179 132.312 140.365 134.733 140.924 137.11C140.385 137.295 139.835 137.451 139.282 137.572C138.779 137.681 138.267 137.763 137.749 137.819C137.955 134.792 137.582 125.724 137.658 125.05C138.255 119.772 138.346 112.549 138.055 109.033C137.823 106.215 137.843 103.555 137.77 100.325C137.729 98.5241 137.676 96.1557 138.149 93.8108C138.382 92.6605 138.885 90.7863 142.845 84.7991C148.676 75.9787 150 76.3817 151.327 72.757C151.651 71.8715 152.157 70.2474 153.675 69.1206C154.617 68.4203 155.22 68.4527 157.462 67.4553C159.312 66.6286 160.798 65.9666 160.718 65.487C160.604 64.7956 157.294 64.8015 155.72 64.8045C151.766 64.8133 148.779 65.287 147.994 65.4106C142.463 66.2785 139.694 66.7139 137.087 66.7728C131.494 66.9022 131.315 65.3988 124.213 64.878C118.396 64.4514 112.515 65.0222 112.473 65.7106C112.459 65.9637 113.939 65.9313 115.957 66.8463C116.725 67.1935 118.211 67.9673 120.123 69.9502C122.583 72.5011 123.177 74.387 125.425 78.2058C127.272 81.3451 127.125 80.5036 129.894 84.8697C133.11 89.942 134.731 92.5428 135.346 95.5467C135.551 96.5529 135.025 99.2655 134.987 103.632C134.94 108.766 135.61 109.569 135.61 114.765C135.61 114.765 134.116 126.983 135.266 137.872C134.51 137.828 133.757 137.725 133.024 137.566C132.471 137.445 131.918 137.29 131.382 137.104C131.942 134.727 132.127 132.306 131.936 129.899C131.577 125.371 129.961 122.108 128.996 120.158C128.429 119.013 127.937 118.142 123.742 112.323C122.347 110.387 121.271 108.913 120.42 107.751C117.949 104.37 117.434 103.667 116.598 101.893C115.236 99.0066 114.359 96.0851 113.992 93.2077C113.789 91.6219 113.78 90.4215 113.777 89.7036V89.5095C113.753 87.0528 113.427 78.5324 110.167 72.0803C106.766 65.3517 100.69 61.8065 97.3687 60.2913C91.7169 57.714 80.1838 55.0396 72.8167 61.3769C72.1341 61.9653 66.1999 67.27 67.9887 72.7482C68.889 75.5079 71.5575 77.8028 74.629 78.4589C75.6882 78.6854 76.7974 78.7119 77.8948 78.5383C76.2972 81.5393 74.4231 86.5615 75.3881 92.4869C75.6676 94.1992 76.1648 95.8703 76.8709 97.4797C72.4842 95.073 64.9112 89.6713 62.0485 80.0417C61.4042 77.8763 59.6978 72.1274 61.9573 65.5312C63.7844 60.1971 67.6827 55.8016 73.2256 52.8153C80.475 48.9141 87.4684 49.8732 91.2255 50.3881C93.6646 50.7205 97.5276 52.1269 105.227 54.9278C108.113 55.9781 110.399 56.846 112.238 57.5463C116.922 59.3292 119.273 60.2236 123.024 60.8532C128.052 61.6947 133.739 61.5211 136.355 61.2798C139.6 61.5799 144.681 61.624 149.274 60.8532C153.025 60.2236 155.375 59.3292 160.059 57.5463C161.898 56.846 164.187 55.9752 167.07 54.9278C174.77 52.1269 178.633 50.7235 181.072 50.3881C184.829 49.8732 191.823 48.9141 199.072 52.8153C204.618 55.7986 208.513 60.1971 210.34 65.5312C212.6 72.1304 210.893 77.8793 210.249 80.0417L210.258 80.0476Z" fill="#750077"/>
</g>
</g>
<defs>
<clipPath id="clip0_202_6">
<rect width="245" height="196" fill="white"/>
</clipPath>
<clipPath id="clip1_202_6">
<rect width="157" height="92" fill="white" transform="translate(58 48)"/>
</clipPath>
</defs>
</svg>
