<svg width="48" height="54" viewBox="0 0 48 54" fill="none" xmlns="http://www.w3.org/2000/svg">
<path d="M1.5 21.9869C1.5 10.7933 11.4472 1.5 24 1.5C36.5528 1.5 46.5 10.7933 46.5 21.9869C46.5 33.5386 39.109 46.9839 27.8072 51.7385C25.3931 52.7538 22.6067 52.7538 20.1926 51.7385C8.89081 46.9838 1.5 33.5386 1.5 21.9869ZM24 31.875C28.5933 31.875 32.3571 28.2036 32.3571 23.625C32.3571 19.0465 28.5933 15.375 24 15.375C19.4067 15.375 15.6429 19.0465 15.6429 23.625C15.6429 28.2036 19.4067 31.875 24 31.875Z" stroke="#762A6C" stroke-width="3"/>
</svg>
