<svg width="74" height="74" viewBox="0 0 74 74" fill="none" xmlns="http://www.w3.org/2000/svg">
<path d="M52.4167 36.9998C60.931 36.9998 67.8333 30.0976 67.8333 21.5832C67.8333 13.0688 60.931 6.1665 52.4167 6.1665C43.9024 6.1665 37 13.0688 37 21.5832C37 24.0493 37.579 26.3803 38.6086 28.4474C38.8824 28.9967 38.9733 29.6246 38.8149 30.2175L37.8966 33.6492C37.498 35.139 38.8608 36.5019 40.3507 36.1032L43.7824 35.185C44.3753 35.0265 45.0031 35.1175 45.5526 35.3913C47.6196 36.4208 49.9506 36.9998 52.4167 36.9998Z" stroke="#85327D" stroke-width="3"/>
<path d="M46.25 21.5832H58.5833M52.4167 27.7498V15.4165" stroke="#85327D" stroke-width="3" stroke-linecap="round"/>
<path d="M24.7829 22.5582L26.784 26.1439C28.5899 29.3798 27.865 33.6247 25.0207 36.469C25.0207 36.469 21.571 39.9193 27.8259 46.1745C34.0789 52.4275 37.5313 48.9797 37.5313 48.9797C40.3757 46.1353 44.6205 45.4104 47.8564 47.2163L51.442 49.2174C56.3285 51.9443 56.9054 58.7967 52.6106 63.0918C50.0299 65.6725 46.8682 67.6807 43.3733 67.813C37.49 68.0362 27.4984 66.5473 17.4757 56.5246C7.45315 46.5019 5.96415 36.5104 6.18719 30.627C6.31969 27.1321 8.3278 23.9705 10.9086 21.3898C15.2035 17.0949 22.0559 17.6719 24.7829 22.5582Z" stroke="#85327D" stroke-width="3" stroke-linecap="round"/>
</svg>
