<svg width="76" height="76" viewBox="0 0 76 76" fill="none" xmlns="http://www.w3.org/2000/svg">
<path d="M46.4435 16.3846C49.2305 16.3846 52.3925 17.488 54.1645 19.3258C56.3676 18.8994 58.4468 18.1192 60.3155 17.0378C59.5941 19.2395 58.0547 21.0875 56.0553 22.2552C58.0123 22.0234 59.8861 21.5208 61.6224 20.7677C60.3223 22.658 58.681 24.3215 56.7868 25.6534C56.8038 26.0562 56.814 26.4623 56.814 26.8685C56.814 39.3357 47.4076 53.6154 29.5759 53.6154C24.1038 53.6154 18.6589 52.1482 14.3732 49.4709C15.1302 49.5623 15.9025 49.6063 16.6832 49.6063C21.2252 49.6063 25.4056 48.0985 28.7272 45.5634C24.4806 45.4906 20.8993 42.7609 19.6705 39.0158C20.2594 39.1242 20.8705 39.1851 21.4951 39.1851C22.3743 39.1851 23.2348 39.0717 24.0461 38.8534C19.6111 37.992 16.2708 34.1775 16.2708 29.6066C16.2708 29.5626 16.2708 29.5237 16.2708 29.4831C17.5794 30.1905 19.0713 30.6169 20.6617 30.6677C18.0597 28.9703 16.3506 26.0883 16.3506 22.8137C16.3506 21.0842 16.8275 19.4612 17.6609 18.0735C22.4404 23.7749 29.586 27.5335 37.6448 27.9295C37.4767 27.2391 37.3902 26.5114 37.3902 25.782C37.3902 20.5697 41.0869 16.3846 46.4435 16.3846ZM61.6224 20.7677H61.6309H61.6224ZM46.4435 13C39.9191 13 34.8731 17.6589 34.1161 24.088C28.7035 22.9931 23.7796 20.1145 20.2425 15.8955C19.5992 15.1272 18.6521 14.6889 17.6609 14.6889C17.5726 14.6889 17.4844 14.6923 17.3961 14.6991C16.3098 14.7854 15.3322 15.3912 14.7704 16.3271C13.5976 18.2834 12.9764 20.5257 12.9764 22.8137C12.9764 24.3385 13.2513 25.826 13.7673 27.2154C13.2157 27.828 12.8983 28.6335 12.8983 29.4831V29.6066C12.8983 32.9218 14.2035 35.9968 16.3726 38.3034C16.2487 38.8822 16.2759 39.4931 16.466 40.0735C17.2162 42.3582 18.5774 44.3246 20.3426 45.824C19.1562 46.088 17.9324 46.2217 16.6832 46.2217C16.023 46.2217 15.3831 46.1845 14.7806 46.11C14.6431 46.0948 14.5073 46.0863 14.3715 46.0863C12.9577 46.0863 11.6728 46.9782 11.1925 48.3455C10.6663 49.8415 11.2468 51.5051 12.5911 52.3445C17.3978 55.3466 23.43 57 29.5759 57C41.1836 57 48.392 51.6574 52.3942 47.1762C57.2485 41.7422 60.0728 34.5228 60.1831 27.3085C61.7565 26.0003 63.1449 24.4908 64.3211 22.8018C64.7471 22.2366 65 21.5309 65 20.7677C65 19.6152 64.428 18.5982 63.5539 17.9855C63.9324 16.6825 63.4979 15.2711 62.4422 14.4097C61.8261 13.9088 61.0725 13.6532 60.3138 13.6532C59.735 13.6532 59.1528 13.8022 58.6284 14.1068C57.4997 14.76 56.2929 15.2745 55.0216 15.6434C52.6862 14.0018 49.5173 13 46.4435 13Z" fill="#85327D"/>
</svg>
